<mxfile host="app.diagrams.net" modified="2023-01-30T03:36:42.822Z" agent="5.0 (Windows NT 10.0; Win64; x64) AppleWebKit/537.36 (KHTML, like Gecko) Chrome/108.0.0.0 Safari/537.36 Edg/108.0.1462.76" etag="AP7d1k1RrPnEgmS4Nsxb" version="20.5.1" type="github">
  <diagram name="Page-1" id="Page-1">
    <mxGraphModel dx="2233" dy="1048" grid="1" gridSize="10" guides="1" tooltips="1" connect="1" arrows="1" fold="1" page="1" pageScale="1" pageWidth="850" pageHeight="1100" math="0" shadow="0">
      <root>
        <mxCell id="0" />
        <mxCell id="1" value="Connector" parent="0" />
        <mxCell id="14" value="&lt;div style=&quot;font-size: 1px&quot;&gt;&lt;p style=&quot;align:center;margin-left:0;margin-right:0;margin-top:0px;margin-bottom:0px;text-indent:0;valign:middle;direction:ltr;&quot;&gt;&lt;font style=&quot;font-size:22.58px;font-family:Calibri;color:#000000;direction:ltr;letter-spacing:0px;line-height:120%;opacity:1&quot;&gt;&lt;u&gt;&lt;b&gt;Arktec Datacenter&lt;br/&gt;&lt;/b&gt;&lt;/u&gt;&lt;/font&gt;&lt;/p&gt;&lt;/div&gt;" style="verticalAlign=middle;align=center;vsdxID=392;fillColor=none;gradientColor=none;shape=stencil(nZBLDoAgDERP0z3SIyjew0SURgSD+Lu9kMZoXLhwN9O+tukAlrNpJg1SzDH4QW/URgNYgZTkjA4UkwJUgGXng+6DX1zLfmoymdXo17xh5zmRJ6Q42BWCfc2oJfdAr+Yv+AP9Cb7OJ3H/2JG1HNGz/84klThPVCc=);strokeColor=none;points=[];labelBackgroundColor=none;rounded=0;html=1;whiteSpace=wrap;" parent="1" vertex="1">
          <mxGeometry x="165" y="45" width="394" height="11" as="geometry" />
        </mxCell>
        <mxCell id="165" style="vsdxID=1098;fillColor=#f2f2f2;gradientColor=none;shape=stencil(nZHRDsIgDEW/pq+GQTTxec4f8AuIVGlEWBhz06+XrZow49P61Ht7WpILqLqzukWQoksx3HAgkyyoA0hJ3mKklDtQDaj6EiJeY+i9Yd3qTEoxO2h4p5poKXQ8n+iFH2+72S9qxxBfuYfH9PrIrODRs1RHBh35AqzEavSr/8Kr0QWYmzkdzo2c43DL+W+a2eKfUM0b);strokeColor=#1f477d;points=[];labelBackgroundColor=#ffffff;rounded=1;html=1;whiteSpace=wrap;" parent="1" vertex="1">
          <mxGeometry x="1214" y="60" width="465" height="490" as="geometry" />
        </mxCell>
        <mxCell id="166" value="&lt;div style=&quot;font-size: 1px&quot;&gt;&lt;p style=&quot;align:center;margin-left:0;margin-right:0;margin-top:0px;margin-bottom:0px;text-indent:0;valign:middle;direction:ltr;&quot;&gt;&lt;font style=&quot;font-size:19.76px;font-family:Calibri;color:#000000;direction:ltr;letter-spacing:0px;line-height:120%;opacity:1&quot;&gt;&lt;u&gt;&lt;b&gt;Kubernetes&lt;/b&gt;&lt;/u&gt;&lt;/font&gt;&lt;/p&gt;&lt;/div&gt;" style="verticalAlign=middle;align=center;vsdxID=1099;fillColor=none;gradientColor=none;shape=stencil(nZBLDoAgDERP0z3SIyjew0SURgSD+Lu9kMZoXLhwN9O+tukAlrNpJg1SzDH4QW/URgNYgZTkjA4UkwJUgGXng+6DX1zLfmoymdXo17xh5zmRJ6Q42BWCfc2oJfdAr+Yv+AP9Cb7OJ3H/2JG1HNGz/84klThPVCc=);strokeColor=none;points=[];labelBackgroundColor=none;rounded=0;html=1;whiteSpace=wrap;" parent="1" vertex="1">
          <mxGeometry x="1310" y="80" width="273" height="11" as="geometry" />
        </mxCell>
        <mxCell id="185" style="vsdxID=1118;fillColor=none;gradientColor=none;strokeColor=none;points=[];labelBackgroundColor=none;rounded=0;html=1;whiteSpace=wrap;" parent="1" vertex="1">
          <mxGeometry x="1170" y="160" width="283.5" height="153.5" as="geometry" />
        </mxCell>
        <mxCell id="186" value="&lt;div style=&quot;font-size: 1px&quot;&gt;&lt;p style=&quot;align:center;margin-left:0;margin-right:0;margin-top:0px;margin-bottom:0px;text-indent:0;valign:middle;direction:ltr;&quot;&gt;&lt;font style=&quot;font-size:14.11px;font-family:Arial;color:#000000;direction:ltr;letter-spacing:0px;line-height:120%;opacity:1&quot;&gt;Django/Python Pod&lt;/font&gt;&lt;font style=&quot;font-size:14.11px;font-family:Arial;color:#000000;direction:ltr;letter-spacing:0px;line-height:120%;opacity:1&quot;&gt;&lt;br&gt;&lt;/font&gt;&lt;font style=&quot;font-size:14.11px;font-family:Arial;color:#000000;direction:ltr;letter-spacing:0px;line-height:120%;opacity:1&quot;&gt;&lt;br&gt;&lt;/font&gt;&lt;/p&gt;&lt;/div&gt;" style="verticalAlign=middle;align=center;vsdxID=1119;fillColor=none;gradientColor=none;shape=stencil(nZBLDoAgDERP0z3SIyjew0SURgSD+Lu9kMZoXLhwN9O+tukAlrNpJg1SzDH4QW/URgNYgZTkjA4UkwJUgGXng+6DX1zLfmoymdXo17xh5zmRJ6Q42BWCfc2oJfdAr+Yv+AP9Cb7OJ3H/2JG1HNGz/84klThPVCc=);strokeColor=none;points=[];labelBackgroundColor=none;rounded=0;html=1;whiteSpace=wrap;" parent="185" vertex="1">
          <mxGeometry y="124" width="220" height="11" as="geometry" />
        </mxCell>
        <mxCell id="187" style="vsdxID=1120;fillColor=none;gradientColor=none;strokeColor=none;points=[];labelBackgroundColor=none;rounded=0;html=1;whiteSpace=wrap;" parent="185" vertex="1">
          <mxGeometry x="74" width="179" height="100" as="geometry" />
        </mxCell>
        <mxCell id="188" style="vsdxID=1121;fillColor=none;gradientColor=none;strokeColor=none;points=[[0.5,0.54,0]];labelBackgroundColor=none;rounded=0;html=1;whiteSpace=wrap;" parent="187" vertex="1">
          <mxGeometry width="72" height="100" as="geometry" />
        </mxCell>
        <mxCell id="189" style="vsdxID=1122;fillColor=#FF00FF;gradientColor=none;fillOpacity=0;strokeOpacity=0;shape=stencil(vVRBcoMwDHwNRzS2hTE+p+k/PI0BTylkDGno72tKmCAoNIe2N1taSbuSRhEe2tKcbSRY2/nm1V7dqSsjfIqEcHVpvevCK8JjhIe88bbwzaU+jf+zGZDD6615HzL0Y1wmQeghSrCPm4WDVF+W5zGgcvUsgDNG4EpClj4O5wlkuA1PQ/GEBLBtMM0sEuDJDhiYoDrTBd74l+D1E5NAdMT7W0CCU2OmnKhAKypvktvHpndt7JvOdK6pCeHK+MLGoVycV6YgrvZq7Xll/laQ5ICktk5AyW1BXAFfKJJA9QzLkNGcCJn+L0UP7CJd3iCJ0f4jgtI7Q02nFt2nGuac/TBV1NOq/EkXVhy5XnGUhOKe8N+iyOcUw+N+QXJXVeMBmvuXFyeYxmuFx08=);points=[[0.5,0.54,0]];labelBackgroundColor=none;rounded=0;html=1;whiteSpace=wrap;" parent="188" vertex="1">
          <mxGeometry width="72" height="100" as="geometry" />
        </mxCell>
        <mxCell id="190" style="vsdxID=1123;fillColor=#ffffff;gradientColor=#e1d8c1;gradientDirection=north;shape=stencil(fVHbEoIgEP0aHmFQvD6X/QeTqEwEzkJpfx9ETtrtbffc2GUR29mBjwKl1DowJzHJ1g2I7VGaSj0IkM5XiDWI7ToDogdz0W3sRx6UoTqba0iYo4+VpM6DK6W3iCSUPvpDlCupV/KFXMTeXlW/5UVC8mxj+JO9TfbWolyLORw9C0tyQaokGmAZPMlIWUdstV35dTs6Yz5Li8E47qTRmxEUh15g/yDuFO83lJ2EGD/g54i+eP1zJ5WKZ1rz73fxULwpa+4=);strokeColor=#ffffff;spacingTop=-3;spacingBottom=-3;spacingLeft=-3;spacingRight=-3;points=[[0.5,0.54,0]];labelBackgroundColor=none;rounded=0;html=1;whiteSpace=wrap;" parent="188" vertex="1">
          <mxGeometry width="72" height="39" as="geometry" />
        </mxCell>
        <mxCell id="191" style="vsdxID=1124;fillColor=#ffffff;gradientColor=#c9ba96;shape=stencil(rVJBEoMgDHwNRxkEHfFs7T+YisqUihNptb8vFDtVO3rqLcnuJiwJYsXQil4iSgYL5ipHVdkWsROiVHWtBGVdhFiJWFEbkA2Ye1eFvBee6aObefgOU9DFhHgNJc85zzFP35VzoAu4OBQ+9CzBMQ8KmCUpxykLpZm1bjlnUyQmNURgrLDKdCtMC2hk5EZFtRbNChpGKftFOV4+TqtO7o3lMc6SIycEp1snGWZ05eTne8h/3ZB9N3mO8+R4Ny747rVWWoezWOLbO3ClcEOsfAE=);strokeColor=#ffffff;spacingTop=-3;spacingBottom=-3;spacingLeft=-3;spacingRight=-3;points=[[0.5,0.54,0]];labelBackgroundColor=none;rounded=0;html=1;whiteSpace=wrap;" parent="188" vertex="1">
          <mxGeometry y="24" width="27" height="75" as="geometry" />
        </mxCell>
        <mxCell id="192" style="vsdxID=1125;fillColor=#ffffff;gradientColor=#b6a06d;shape=stencil(UzV2Ls5ILEhVNTIoLinKz04tz0wpyVA1dlE1MsrMy0gtyiwBslSNXVWNndPyi1LTi/JL81Ig/IJEkEoQKze/DGRCBUSfAUiHkUElhGdkoWdqBhZxgyjOyczDqdjQwAC3UpgkTLG5oZ65EfHK8ZhMwMVABsKvaZk5OZCgQpZHDxugECRcjV0B);strokeColor=#ffffff;spacingTop=-3;spacingBottom=-3;spacingLeft=-3;spacingRight=-3;points=[[0.5,0.54,0]];labelBackgroundColor=none;rounded=0;html=1;whiteSpace=wrap;" parent="188" vertex="1">
          <mxGeometry x="27" y="14" width="44" height="85" as="geometry" />
        </mxCell>
        <mxCell id="193" value="&lt;div style=&quot;font-size: 1px&quot;&gt;&lt;/div&gt;" style="verticalAlign=middle;align=center;vsdxID=1126;fillColor=#000000;gradientColor=none;shape=stencil(jZLdEoIgEIWfhksZBPzp2uw9mERlMnFWSnv7MHQSraa73bPfgV0WxLK+Fp1ElPQG9EUOqjA1YkdEqWprCcrYCLEcsazUICvQt7ZweScmcoqu+j6dMDpfSMjkoeQx5xyn7KWcHN6odoXHIY64ZyDfYf9kynHIf8CYUI9P4w0v4GyrsHRiG3U8zAbOcJQ4aWZYgg+JP94y7hiIUfUBaCOM0q3XcCOgkoG9LigbUXmlfpCy28kfB9q+bBLhNP4f3y3CBu8luv2va9uFW8l9FpY/AQ==);strokeColor=#000000;spacingTop=-3;spacingBottom=-3;spacingLeft=-3;spacingRight=-3;points=[[0.5,0.54,0]];labelBackgroundColor=none;rounded=0;html=1;whiteSpace=wrap;" parent="188" vertex="1">
          <mxGeometry width="72" height="100" as="geometry" />
        </mxCell>
        <mxCell id="194" style="vsdxID=1127;rotation=340;fillColor=#FFFFFF;gradientColor=#339966;shape=stencil(vVHLDsIgEPwajiQI6RfU+h8bu22JCGRB2/69kG1iazx58DazM/vIjjBtmiCi0CplCjecbZ8nYc5Ca+snJJsLEqYTph0C4Ujh4XvmEaqzont41gkL96naodXKrGF6YSfQtUi0OXXDVlqPfJNP6usotUhYbJIUMmQb/GGrAxpRljVycDBuc1hKM2LclX8/7H9nFfB+82Cd45T2+mcspcSRmu4F);strokeColor=#000000;points=[[0.5,0.54,0]];labelBackgroundColor=none;rounded=0;html=1;whiteSpace=wrap;" parent="188" vertex="1">
          <mxGeometry x="10" y="61" width="4" height="5" as="geometry" />
        </mxCell>
        <mxCell id="195" style="vsdxID=1128;fillColor=#FFFFFF;gradientColor=#e7e4cd;gradientDirection=north;shape=stencil(xZLdDoIwDIWfZpcsowMc1wrvseiARWWkzL+3d6So+BO8Mt61PafdvuQwuewb3RkGovfotuZkN75hcsUAbNsYtD5UTBZMLiuHpkZ3aDfUd3pwDtXeHYcLZ9oTwwaIy7QryahxHRQcjaByLhS58XKbKZ7kNBttsXi+mGY8htER6bPtI3Ree+ta0pXkaUb6TmNtovBqVO10/fS9/mRM9zYuvwNBzPNkHip+Z0phlmmhuMj+x5RIrtQXJvgAlcxC3ftfIYXiEULK71R7DWwYUdhlcQU=);strokeColor=#000000;strokeWidth=2;points=[[0.5,0.54,0]];labelBackgroundColor=none;rounded=0;html=1;whiteSpace=wrap;" parent="188" vertex="1">
          <mxGeometry x="4" y="74" width="18" height="16" as="geometry" />
        </mxCell>
        <mxCell id="196" style="vsdxID=1129;fillColor=none;gradientColor=none;strokeColor=none;points=[[0.5,0.54,0]];labelBackgroundColor=none;rounded=0;html=1;whiteSpace=wrap;" parent="188" vertex="1">
          <mxGeometry x="3" y="35" width="19" height="21" as="geometry" />
        </mxCell>
        <mxCell id="197" style="vsdxID=1130;fillColor=#000000;gradientColor=none;shape=stencil(vZPdcoMgEIWfhkt3gEXQ6zR5D6ZBZWLFQfLTty8W+kPatDdt7tZzzsLHjktwswx6NoTTJXh3MGe7DwPBB8K5nQbjbYgVwS3BTee86b07Tvv0Pes1uVZP7rSecEl9CMjWJk6fk8AECHxVdimv/WN0fc5zFFAnn/rcgi0H0SYtx1oJvCnPpTQnKn2xS+Vd0MG6KbnZG7XvTRVvrLpR94W1nI2Zv8jfMgpQsiRU0Kpf+Jr4bnEvwngdsKshNgwUFpA1MFXOEFD+KSK7jYhAm5Iw4siCjwLlBV8Nqr7XCOX7tN74GANeAv7wc/8LYSw+9qyz45jW9LN/vZdRSjuN2xc=);strokeColor=#000000;points=[[0.5,0.54,0]];labelBackgroundColor=none;rounded=0;html=1;whiteSpace=wrap;" parent="196" vertex="1">
          <mxGeometry width="19" height="11" as="geometry" />
        </mxCell>
        <mxCell id="198" style="vsdxID=1131;fillColor=#FFFFFF;gradientColor=#e7e4cd;shape=stencil(pVFLDoIwED1NlzTTlmBZ+7lHIwUakZKhCt7e4mAUxZW7mffpvOYxte1r01kmoQ/oT3ZwRaiZ2jEpXVtbdCFOTO2Z2pYebYX+0ha0d2ZSTtPZX6cXRvIJgMkj4UZ7rjmIB3IgucFjZPEpl4JrRQ6cLUJonueEzTLJ083iWQkc9CxJzOj6BH0wwfmWeJ1zugqNwcom8WpSNqYido7YD9Z2X/BqTg1cZMuYWcqFXKT8/ff1kPBfwji8Wihd01CJ7/xnaxGixtX+Dg==);strokeColor=#FFFFFF;strokeWidth=0;points=[[0.5,0.54,0]];labelBackgroundColor=none;rounded=0;html=1;whiteSpace=wrap;" parent="196" vertex="1">
          <mxGeometry x="5" y="5" width="5" height="3" as="geometry" />
        </mxCell>
        <mxCell id="199" style="vsdxID=1132;fillColor=#000000;gradientColor=#e7e4cd;fillOpacity=40;shape=stencil(rVJLEoIwDD1Nl3RK4lBc+7lHRwt0rJQJVfD2lqkfQHTlLp/3krwkDDdtpRrNQLSe3El35ugrhlsGYOpKk/HBYrhjuCkc6ZLcpT5Gv1EDcrDO7jpU6CNPDAwQt7G3j0Br6q9ARC5xDFZ0CFl6gEGmHFaRQU8KZDyPoQcqFdOiL79PVG/ahJxX3rh6MoBVVOoktEsKq8pJqu20bj7Ci2rmrbOMg/yhJxcc1jM9KLmc6Fna5b+0pOPhgvG+Z2Gsje8wzs/vH0Lxd3B3Bw==);strokeColor=none;strokeWidth=0;points=[[0.5,0.54,0]];labelBackgroundColor=none;rounded=0;html=1;whiteSpace=wrap;" parent="196" vertex="1">
          <mxGeometry y="6" width="18" height="14" as="geometry" />
        </mxCell>
        <mxCell id="200" style="vsdxID=1133;fillColor=#000000;gradientColor=none;shape=stencil(rVLLEoIwDPyaHun0gRbOiP/R0QIdK2XSqvj3Fouj1UEv3pLNbpKdBPHKdXJQiBHnwR7URe99h/gGMab7ToH2IUK8RrxqLKgW7Knfx3yQE3OKjvY8dRijjkwKRq4xoxSz8o5sI1nCLlRhJrN8hVciKmCW8HKNSRGxmUbJW9dHPmZy1C4D66XXtk82MBJalYV5WWNkm5TcRanhA543NLpXy6OLAgv6xZCgOOepoZwLLMrEUNrzv2bospkftwnB86qNNiY+xWv9/QsCFD+I1zc=);strokeColor=none;points=[[0.5,0.54,0]];labelBackgroundColor=none;rounded=0;html=1;whiteSpace=wrap;" parent="196" vertex="1">
          <mxGeometry y="7" width="18" height="10" as="geometry" />
        </mxCell>
        <mxCell id="201" style="vsdxID=1134;fillColor=none;gradientColor=none;fillOpacity=40;shape=stencil(dVDRDoIwDPyaPY6M1ojviP+xyBiLuJFuCv69W4YKGt/uendtcwxr38tRMRA+kLuoybShZ3hkAMb2ikyIiGHDsO4cKU3uZtvMR5mcCV3dPW2Yc06kBIjHmp2ycTD2rxGxqHBtlnSOKi1mqMoCdjlBrwjsi0MeLa5SbJe++czlbDwnF2Qwzm4eGCRpxeM53g1SbyQ/KTX+jJcHI/h0kOtba999xVHuGpsn);strokeColor=#FFFFFF;points=[[0.5,0.54,0]];labelBackgroundColor=none;rounded=0;html=1;whiteSpace=wrap;" parent="196" vertex="1">
          <mxGeometry y="6" width="18" height="14" as="geometry" />
        </mxCell>
        <mxCell id="202" style="vsdxID=1135;fillColor=#000000;gradientColor=#e7e4cd;fillOpacity=40;shape=stencil(fVDLDsIgEPwajjR0N2n1XPU/iKUtsUKzoK1/L4QawYO3mZ0HZBh2bpKLYiCcJ3tTq+79xPDEALSZFGkfEMMzw26wpEayD9MnvsjojOhun7FhS7laiJgB8Sr5JZlnbf6Ym6aCNrdLugaVdjscRAXHlKA9gthWKfIpLSt3tnG5acfJeum1NYU2SxoVD0/xYZZjIblVqSU71/nnAviukAbMtd/Fwimtjec3);strokeColor=#000000;points=[[0.5,0.54,0]];labelBackgroundColor=none;rounded=0;html=1;whiteSpace=wrap;" parent="196" vertex="1">
          <mxGeometry y="6" width="18" height="14" as="geometry" />
        </mxCell>
        <mxCell id="208" style="vsdxID=1142;fillColor=#f2f2f2;gradientColor=none;shape=stencil(nZHRDsIgDEW/pq+GQTTxec4f8AuIVGlEWBhz06+XrZow49P61Ht7WpILqLqzukWQoksx3HAgkyyoA0hJ3mKklDtQDaj6EiJeY+i9Yd3qTEoxO2h4p5poKXQ8n+iFH2+72S9qxxBfuYfH9PrIrODRs1RHBh35AqzEavSr/8Kr0QWYmzkdzo2c43DL+W+a2eKfUM0b);strokeColor=#1f477d;points=[];labelBackgroundColor=#ffffff;rounded=1;html=1;whiteSpace=wrap;" parent="1" vertex="1">
          <mxGeometry x="1780" y="60" width="465" height="490" as="geometry" />
        </mxCell>
        <mxCell id="209" value="&lt;div style=&quot;font-size: 1px&quot;&gt;&lt;p style=&quot;align:center;margin-left:0;margin-right:0;margin-top:0px;margin-bottom:0px;text-indent:0;valign:middle;direction:ltr;&quot;&gt;&lt;font style=&quot;font-size:19.76px;font-family:Calibri;color:#000000;direction:ltr;letter-spacing:0px;line-height:120%;opacity:1&quot;&gt;&lt;u&gt;&lt;b&gt;MongoDB&#39;s&lt;/b&gt;&lt;/u&gt;&lt;/font&gt;&lt;/p&gt;&lt;/div&gt;" style="verticalAlign=middle;align=center;vsdxID=1143;fillColor=none;gradientColor=none;shape=stencil(nZBLDoAgDERP0z3SIyjew0SURgSD+Lu9kMZoXLhwN9O+tukAlrNpJg1SzDH4QW/URgNYgZTkjA4UkwJUgGXng+6DX1zLfmoymdXo17xh5zmRJ6Q42BWCfc2oJfdAr+Yv+AP9Cb7OJ3H/2JG1HNGz/84klThPVCc=);strokeColor=none;points=[];labelBackgroundColor=none;rounded=0;html=1;whiteSpace=wrap;" parent="1" vertex="1">
          <mxGeometry x="1876" y="80" width="273" height="11" as="geometry" />
        </mxCell>
        <mxCell id="355" style="vsdxID=1341;fillColor=none;gradientColor=none;strokeColor=none;points=[];labelBackgroundColor=none;rounded=0;html=1;whiteSpace=wrap;" parent="1" vertex="1">
          <mxGeometry x="1900" y="160" width="253" height="135" as="geometry" />
        </mxCell>
        <mxCell id="356" value="&lt;div style=&quot;font-size: 1px&quot;&gt;&lt;p style=&quot;align:center;margin-left:0;margin-right:0;margin-top:0px;margin-bottom:0px;text-indent:0;valign:middle;direction:ltr;&quot;&gt;&lt;font style=&quot;font-size:14.11px;font-family:Arial;color:#000000;direction:ltr;letter-spacing:0px;line-height:120%;opacity:1&quot;&gt;&lt;br&gt;&lt;/font&gt;&lt;font style=&quot;font-size:14.11px;font-family:Arial;color:#000000;direction:ltr;letter-spacing:0px;line-height:120%;opacity:1&quot;&gt;Malak-A&lt;br&gt;&lt;/font&gt;&lt;font style=&quot;font-size:14.11px;font-family:Arial;color:#000000;direction:ltr;letter-spacing:0px;line-height:120%;opacity:1&quot;&gt;&lt;br&gt;&lt;/font&gt;&lt;/p&gt;&lt;/div&gt;" style="verticalAlign=middle;align=center;vsdxID=1342;fillColor=none;gradientColor=none;shape=stencil(nZBLDoAgDERP0z3SIyjew0SURgSD+Lu9kMZoXLhwN9O+tukAlrNpJg1SzDH4QW/URgNYgZTkjA4UkwJUgGXng+6DX1zLfmoymdXo17xh5zmRJ6Q42BWCfc2oJfdAr+Yv+AP9Cb7OJ3H/2JG1HNGz/84klThPVCc=);strokeColor=none;points=[];labelBackgroundColor=none;rounded=0;html=1;whiteSpace=wrap;" parent="355" vertex="1">
          <mxGeometry y="124" width="220" height="11" as="geometry" />
        </mxCell>
        <mxCell id="357" style="vsdxID=1343;fillColor=none;gradientColor=none;strokeColor=none;points=[];labelBackgroundColor=none;rounded=0;html=1;whiteSpace=wrap;" parent="355" vertex="1">
          <mxGeometry x="74" width="179" height="100" as="geometry" />
        </mxCell>
        <mxCell id="358" style="vsdxID=1344;fillColor=none;gradientColor=none;strokeColor=none;points=[[0.5,0.54,0]];labelBackgroundColor=none;rounded=0;html=1;whiteSpace=wrap;" parent="357" vertex="1">
          <mxGeometry width="72" height="100" as="geometry" />
        </mxCell>
        <mxCell id="359" style="vsdxID=1345;fillColor=#FF00FF;gradientColor=none;fillOpacity=0;strokeOpacity=0;shape=stencil(vVRBcoMwDHwNRzS2hTE+p+k/PI0BTylkDGno72tKmCAoNIe2N1taSbuSRhEe2tKcbSRY2/nm1V7dqSsjfIqEcHVpvevCK8JjhIe88bbwzaU+jf+zGZDD6615HzL0Y1wmQeghSrCPm4WDVF+W5zGgcvUsgDNG4EpClj4O5wlkuA1PQ/GEBLBtMM0sEuDJDhiYoDrTBd74l+D1E5NAdMT7W0CCU2OmnKhAKypvktvHpndt7JvOdK6pCeHK+MLGoVycV6YgrvZq7Xll/laQ5ICktk5AyW1BXAFfKJJA9QzLkNGcCJn+L0UP7CJd3iCJ0f4jgtI7Q02nFt2nGuac/TBV1NOq/EkXVhy5XnGUhOKe8N+iyOcUw+N+QXJXVeMBmvuXFyeYxmuFx08=);points=[[0.5,0.54,0]];labelBackgroundColor=none;rounded=0;html=1;whiteSpace=wrap;" parent="358" vertex="1">
          <mxGeometry width="72" height="100" as="geometry" />
        </mxCell>
        <mxCell id="360" style="vsdxID=1346;fillColor=#ffffff;gradientColor=#e1d8c1;gradientDirection=north;shape=stencil(fVHbEoIgEP0aHmFQvD6X/QeTqEwEzkJpfx9ETtrtbffc2GUR29mBjwKl1DowJzHJ1g2I7VGaSj0IkM5XiDWI7ToDogdz0W3sRx6UoTqba0iYo4+VpM6DK6W3iCSUPvpDlCupV/KFXMTeXlW/5UVC8mxj+JO9TfbWolyLORw9C0tyQaokGmAZPMlIWUdstV35dTs6Yz5Li8E47qTRmxEUh15g/yDuFO83lJ2EGD/g54i+eP1zJ5WKZ1rz73fxULwpa+4=);strokeColor=#ffffff;spacingTop=-3;spacingBottom=-3;spacingLeft=-3;spacingRight=-3;points=[[0.5,0.54,0]];labelBackgroundColor=none;rounded=0;html=1;whiteSpace=wrap;" parent="358" vertex="1">
          <mxGeometry width="72" height="39" as="geometry" />
        </mxCell>
        <mxCell id="361" style="vsdxID=1347;fillColor=#ffffff;gradientColor=#c9ba96;shape=stencil(rVJBEoMgDHwNRxkEHfFs7T+YisqUihNptb8vFDtVO3rqLcnuJiwJYsXQil4iSgYL5ipHVdkWsROiVHWtBGVdhFiJWFEbkA2Ye1eFvBee6aObefgOU9DFhHgNJc85zzFP35VzoAu4OBQ+9CzBMQ8KmCUpxykLpZm1bjlnUyQmNURgrLDKdCtMC2hk5EZFtRbNChpGKftFOV4+TqtO7o3lMc6SIycEp1snGWZ05eTne8h/3ZB9N3mO8+R4Ny747rVWWoezWOLbO3ClcEOsfAE=);strokeColor=#ffffff;spacingTop=-3;spacingBottom=-3;spacingLeft=-3;spacingRight=-3;points=[[0.5,0.54,0]];labelBackgroundColor=none;rounded=0;html=1;whiteSpace=wrap;" parent="358" vertex="1">
          <mxGeometry y="24" width="27" height="75" as="geometry" />
        </mxCell>
        <mxCell id="362" style="vsdxID=1348;fillColor=#ffffff;gradientColor=#b6a06d;shape=stencil(UzV2Ls5ILEhVNTIoLinKz04tz0wpyVA1dlE1MsrMy0gtyiwBslSNXVWNndPyi1LTi/JL81Ig/IJEkEoQKze/DGRCBUSfAUiHkUElhGdkoWdqBhZxgyjOyczDqdjQwAC3UpgkTLG5oZ65EfHK8ZhMwMVABsKvaZk5OZCgQpZHDxugECRcjV0B);strokeColor=#ffffff;spacingTop=-3;spacingBottom=-3;spacingLeft=-3;spacingRight=-3;points=[[0.5,0.54,0]];labelBackgroundColor=none;rounded=0;html=1;whiteSpace=wrap;" parent="358" vertex="1">
          <mxGeometry x="27" y="14" width="44" height="85" as="geometry" />
        </mxCell>
        <mxCell id="363" value="&lt;div style=&quot;font-size: 1px&quot;&gt;&lt;/div&gt;" style="verticalAlign=middle;align=center;vsdxID=1349;fillColor=#000000;gradientColor=none;shape=stencil(jZLdEoIgEIWfhksZBPzp2uw9mERlMnFWSnv7MHQSraa73bPfgV0WxLK+Fp1ElPQG9EUOqjA1YkdEqWprCcrYCLEcsazUICvQt7ZweScmcoqu+j6dMDpfSMjkoeQx5xyn7KWcHN6odoXHIY64ZyDfYf9kynHIf8CYUI9P4w0v4GyrsHRiG3U8zAbOcJQ4aWZYgg+JP94y7hiIUfUBaCOM0q3XcCOgkoG9LigbUXmlfpCy28kfB9q+bBLhNP4f3y3CBu8luv2va9uFW8l9FpY/AQ==);strokeColor=#000000;spacingTop=-3;spacingBottom=-3;spacingLeft=-3;spacingRight=-3;points=[[0.5,0.54,0]];labelBackgroundColor=none;rounded=0;html=1;whiteSpace=wrap;" parent="358" vertex="1">
          <mxGeometry width="72" height="100" as="geometry" />
        </mxCell>
        <mxCell id="364" style="vsdxID=1350;rotation=340;fillColor=#FFFFFF;gradientColor=#339966;shape=stencil(vVHLDsIgEPwajiQI6RfU+h8bu22JCGRB2/69kG1iazx58DazM/vIjjBtmiCi0CplCjecbZ8nYc5Ca+snJJsLEqYTph0C4Ujh4XvmEaqzont41gkL96naodXKrGF6YSfQtUi0OXXDVlqPfJNP6usotUhYbJIUMmQb/GGrAxpRljVycDBuc1hKM2LclX8/7H9nFfB+82Cd45T2+mcspcSRmu4F);strokeColor=#000000;points=[[0.5,0.54,0]];labelBackgroundColor=none;rounded=0;html=1;whiteSpace=wrap;" parent="358" vertex="1">
          <mxGeometry x="10" y="61" width="4" height="5" as="geometry" />
        </mxCell>
        <mxCell id="365" style="vsdxID=1351;fillColor=#FFFFFF;gradientColor=#e7e4cd;gradientDirection=north;shape=stencil(xZLdDoIwDIWfZpcsowMc1wrvseiARWWkzL+3d6So+BO8Mt61PafdvuQwuewb3RkGovfotuZkN75hcsUAbNsYtD5UTBZMLiuHpkZ3aDfUd3pwDtXeHYcLZ9oTwwaIy7QryahxHRQcjaByLhS58XKbKZ7kNBttsXi+mGY8htER6bPtI3Ree+ta0pXkaUb6TmNtovBqVO10/fS9/mRM9zYuvwNBzPNkHip+Z0phlmmhuMj+x5RIrtQXJvgAlcxC3ftfIYXiEULK71R7DWwYUdhlcQU=);strokeColor=#000000;strokeWidth=2;points=[[0.5,0.54,0]];labelBackgroundColor=none;rounded=0;html=1;whiteSpace=wrap;" parent="358" vertex="1">
          <mxGeometry x="4" y="74" width="18" height="16" as="geometry" />
        </mxCell>
        <mxCell id="366" style="vsdxID=1352;fillColor=none;gradientColor=none;strokeColor=none;points=[[0.5,0.54,0]];labelBackgroundColor=none;rounded=0;html=1;whiteSpace=wrap;" parent="358" vertex="1">
          <mxGeometry x="3" y="35" width="19" height="21" as="geometry" />
        </mxCell>
        <mxCell id="367" style="vsdxID=1353;fillColor=#000000;gradientColor=none;shape=stencil(vZPdcoMgEIWfhkt3gEXQ6zR5D6ZBZWLFQfLTty8W+kPatDdt7tZzzsLHjktwswx6NoTTJXh3MGe7DwPBB8K5nQbjbYgVwS3BTee86b07Tvv0Pes1uVZP7rSecEl9CMjWJk6fk8AECHxVdimv/WN0fc5zFFAnn/rcgi0H0SYtx1oJvCnPpTQnKn2xS+Vd0MG6KbnZG7XvTRVvrLpR94W1nI2Zv8jfMgpQsiRU0Kpf+Jr4bnEvwngdsKshNgwUFpA1MFXOEFD+KSK7jYhAm5Iw4siCjwLlBV8Nqr7XCOX7tN74GANeAv7wc/8LYSw+9qyz45jW9LN/vZdRSjuN2xc=);strokeColor=#000000;points=[[0.5,0.54,0]];labelBackgroundColor=none;rounded=0;html=1;whiteSpace=wrap;" parent="366" vertex="1">
          <mxGeometry width="19" height="11" as="geometry" />
        </mxCell>
        <mxCell id="368" style="vsdxID=1354;fillColor=#FFFFFF;gradientColor=#e7e4cd;shape=stencil(pVFLDoIwED1NlzTTlmBZ+7lHIwUakZKhCt7e4mAUxZW7mffpvOYxte1r01kmoQ/oT3ZwRaiZ2jEpXVtbdCFOTO2Z2pYebYX+0ha0d2ZSTtPZX6cXRvIJgMkj4UZ7rjmIB3IgucFjZPEpl4JrRQ6cLUJonueEzTLJ083iWQkc9CxJzOj6BH0wwfmWeJ1zugqNwcom8WpSNqYido7YD9Z2X/BqTg1cZMuYWcqFXKT8/ff1kPBfwji8Wihd01CJ7/xnaxGixtX+Dg==);strokeColor=#FFFFFF;strokeWidth=0;points=[[0.5,0.54,0]];labelBackgroundColor=none;rounded=0;html=1;whiteSpace=wrap;" parent="366" vertex="1">
          <mxGeometry x="5" y="5" width="5" height="3" as="geometry" />
        </mxCell>
        <mxCell id="369" style="vsdxID=1355;fillColor=#000000;gradientColor=#e7e4cd;fillOpacity=40;shape=stencil(rVJLEoIwDD1Nl3RK4lBc+7lHRwt0rJQJVfD2lqkfQHTlLp/3krwkDDdtpRrNQLSe3El35ugrhlsGYOpKk/HBYrhjuCkc6ZLcpT5Gv1EDcrDO7jpU6CNPDAwQt7G3j0Br6q9ARC5xDFZ0CFl6gEGmHFaRQU8KZDyPoQcqFdOiL79PVG/ahJxX3rh6MoBVVOoktEsKq8pJqu20bj7Ci2rmrbOMg/yhJxcc1jM9KLmc6Fna5b+0pOPhgvG+Z2Gsje8wzs/vH0Lxd3B3Bw==);strokeColor=none;strokeWidth=0;points=[[0.5,0.54,0]];labelBackgroundColor=none;rounded=0;html=1;whiteSpace=wrap;" parent="366" vertex="1">
          <mxGeometry y="6" width="18" height="14" as="geometry" />
        </mxCell>
        <mxCell id="370" style="vsdxID=1356;fillColor=#000000;gradientColor=none;shape=stencil(rVLLEoIwDPyaHun0gRbOiP/R0QIdK2XSqvj3Fouj1UEv3pLNbpKdBPHKdXJQiBHnwR7URe99h/gGMab7ToH2IUK8RrxqLKgW7Knfx3yQE3OKjvY8dRijjkwKRq4xoxSz8o5sI1nCLlRhJrN8hVciKmCW8HKNSRGxmUbJW9dHPmZy1C4D66XXtk82MBJalYV5WWNkm5TcRanhA543NLpXy6OLAgv6xZCgOOepoZwLLMrEUNrzv2bospkftwnB86qNNiY+xWv9/QsCFD+I1zc=);strokeColor=none;points=[[0.5,0.54,0]];labelBackgroundColor=none;rounded=0;html=1;whiteSpace=wrap;" parent="366" vertex="1">
          <mxGeometry y="7" width="18" height="10" as="geometry" />
        </mxCell>
        <mxCell id="371" style="vsdxID=1357;fillColor=none;gradientColor=none;fillOpacity=40;shape=stencil(dVDRDoIwDPyaPY6M1ojviP+xyBiLuJFuCv69W4YKGt/uendtcwxr38tRMRA+kLuoybShZ3hkAMb2ikyIiGHDsO4cKU3uZtvMR5mcCV3dPW2Yc06kBIjHmp2ycTD2rxGxqHBtlnSOKi1mqMoCdjlBrwjsi0MeLa5SbJe++czlbDwnF2Qwzm4eGCRpxeM53g1SbyQ/KTX+jJcHI/h0kOtba999xVHuGpsn);strokeColor=#FFFFFF;points=[[0.5,0.54,0]];labelBackgroundColor=none;rounded=0;html=1;whiteSpace=wrap;" parent="366" vertex="1">
          <mxGeometry y="6" width="18" height="14" as="geometry" />
        </mxCell>
        <mxCell id="372" style="vsdxID=1358;fillColor=#000000;gradientColor=#e7e4cd;fillOpacity=40;shape=stencil(fVDLDsIgEPwajjR0N2n1XPU/iKUtsUKzoK1/L4QawYO3mZ0HZBh2bpKLYiCcJ3tTq+79xPDEALSZFGkfEMMzw26wpEayD9MnvsjojOhun7FhS7laiJgB8Sr5JZlnbf6Ym6aCNrdLugaVdjscRAXHlKA9gthWKfIpLSt3tnG5acfJeum1NYU2SxoVD0/xYZZjIblVqSU71/nnAviukAbMtd/Fwimtjec3);strokeColor=#000000;points=[[0.5,0.54,0]];labelBackgroundColor=none;rounded=0;html=1;whiteSpace=wrap;" parent="366" vertex="1">
          <mxGeometry y="6" width="18" height="14" as="geometry" />
        </mxCell>
        <mxCell id="373" style="vsdxID=1359;fillColor=none;gradientColor=none;strokeColor=none;points=[[0.5,0.54,0]];labelBackgroundColor=none;rounded=0;html=1;whiteSpace=wrap;" parent="358" vertex="1">
          <mxGeometry x="36" y="65" width="25" height="35" as="geometry" />
        </mxCell>
        <mxCell id="374" style="vsdxID=1360;fillColor=#FFFFFF;gradientColor=#4e8ec2;gradientDirection=north;shape=stencil(vVHLDsIgEPwajiQI6RfU+h8bu22JCGRB2/69kG1iazx58DazM/vIjjBtmiCi0CplCjecbZ8nYc5Ca+snJJsLEqYTph0C4Ujh4XvmEaqzont41gkL96naodXKrGF6YSfQtUi0OXXDVlqPfJNP6usotUhYbJIUMmQb/GGrAxpRljVycDBuc1hKM2LclX8/7H9nFfB+82Cd45T2+mcspcSRmu4F);strokeColor=#4e8ec2;points=[[0.5,0.54,0]];labelBackgroundColor=none;rounded=0;html=1;whiteSpace=wrap;" parent="373" vertex="1">
          <mxGeometry y="1" width="24" height="11" as="geometry" />
        </mxCell>
        <mxCell id="375" value="&lt;div style=&quot;font-size: 1px&quot;&gt;&lt;/div&gt;" style="verticalAlign=middle;align=center;vsdxID=1361;fillColor=#FFFFFF;gradientColor=#4e8ec2;shape=stencil(lVLbDsIgDP0aHlkYZOqep/4HcWwjIiwF3fx7IczILpr41vac0/akRayyHe8FosQ6MFcxyNp1iB0RpVJ3AqTzEWInxKrGgGjB3HUd854HZohu5hE6jFFHgoKSZ5qdI1FJ/ZV4IBlhKZnDxaMwkQsP0yiASUFJto+ViVOWWVksm7I3B/NRWgzGcSeNnq2gOLQC+4G4UbydQXYQol+VN/3k5If1pZuVlV0587LV6m8P+baHPF3MB59LNlKp+Agpvry8L8WvYacX);strokeColor=#4e8ec2;spacingTop=-3;spacingBottom=-3;spacingLeft=-3;spacingRight=-3;points=[[0.5,0.54,0]];labelBackgroundColor=none;rounded=0;html=1;whiteSpace=wrap;" parent="373" vertex="1">
          <mxGeometry y="6" width="24" height="27" as="geometry" />
        </mxCell>
        <mxCell id="376" value="&lt;div style=&quot;font-size: 1px&quot;&gt;&lt;/div&gt;" style="verticalAlign=middle;align=center;vsdxID=1362;fillColor=#000000;gradientColor=none;shape=stencil(nVLLEoIwDPyaHsuUVgY4o/5HRwp0RMqkVfDvbW1VBB+jt2R3s0kmQazQDe8FokQbUHsxyNI0iK0RpbJrBEhjI8Q2iBWVAlGDOnalz3vulC46qJNzGH1dTIiroeQc8jQi9IpsvZzDzrIQ5ElQw0J+M1zYxVngMR+lxqAMN1J1T+qWQy2wbYWrlteh1FN6EKKfwGQ6XCs78a51xqIV+7TJfXJ4MaxH8jzKk7lrGv+3EPl5oa/HscHjsP4nptz8CSzkH4htLg==);strokeColor=#000000;spacingTop=-3;spacingBottom=-3;spacingLeft=-3;spacingRight=-3;points=[[0.5,0.54,0]];labelBackgroundColor=none;rounded=0;html=1;whiteSpace=wrap;" parent="373" vertex="1">
          <mxGeometry y="1" width="24" height="33" as="geometry" />
        </mxCell>
        <mxCell id="469" value="&lt;div style=&quot;font-size: 1px&quot;&gt;&lt;font style=&quot;font-size:14.11px;font-family:Calibri;color:#000000;direction:ltr;letter-spacing:0px;line-height:120%;opacity:1&quot;&gt;Clients API call&lt;/font&gt;&lt;/div&gt;" style="verticalAlign=middle;align=center;vsdxID=1457;fillColor=#FFFFFF;gradientColor=none;shape=stencil(xVfLctswDPwaHY0hAPF1dpP/0CSyrYlreWilSf8+dClTBT1WTmVvNAjJu3gt1PD2cujOfUPqMoXxrf8YXqdDwz8aouF06MMwxVPDTw1vd2Po92F8P72m3+fu6nk9/Rx/Xd/wmZ5rwdP1IVK/k0F7UPaP5Tn5d+El3obZ34JP7mH2RwaaTbOLA4vilcyg9eyy6T6HyyaMUzcN4yndq3R37MK+38S/2+yO3V5cXT76/vyXGR8DRAMKJUQy4FsBkRG8FhiR8mMVMDrgIoysSowawRmB0QJRNYgImotMe5AIjQPPsnjA1EPIgAVCikksatGDk3lmMLUQ+rssowYrAXoLLBGyXiqhRprNfZq1kUHMTT+7GAuuXkO3YGyR52hyshQtqFZgdHzLfAWIMYkFQg8oALIDLYPoFaCvhZAwt2qeOAacrMXYG0U/1wyiA6OLSmwX3fhWrf4JwnhYhHM3HI9Jd/P9I1VFlWfTAtStyqpzBfmoq/+XvKTEFlDKkTNAa4w83jHi+k2hHlOKQ8PKLcDGiK5wMnlWZ04KbCGKlSeRpOQISC5fWoNya5SK2RoVgaxgVHv8S0Y+DgEZzzbGnNcYId0lieqr7krhcZvXgGUxWKm7uHiVIq1v46TmSisoidlYzMV4KD9Aoil9vPDTFw==);strokeColor=#000000;points=[[0.18,0.12,0],[0.42,0.05,0],[0.61,0,0],[0.81,0.01,0],[0.98,0.23,0],[0.99,0.57,0],[0.81,0.83,0],[0.56,0.99,0],[0.26,0.94,0],[0.03,0.8,0],[0.03,0.47,0]];labelBackgroundColor=none;rounded=0;html=1;whiteSpace=wrap;" parent="1" vertex="1">
          <mxGeometry x="910" y="200" width="200" height="150" as="geometry" />
        </mxCell>
        <mxCell id="_ri6LobGK2kgGPJhY-P0-472" style="vsdxID=1341;fillColor=none;gradientColor=none;strokeColor=none;points=[];labelBackgroundColor=none;rounded=0;html=1;whiteSpace=wrap;" vertex="1" parent="1">
          <mxGeometry x="1886" y="372.5" width="253" height="135" as="geometry" />
        </mxCell>
        <mxCell id="_ri6LobGK2kgGPJhY-P0-473" value="&lt;div style=&quot;font-size: 1px&quot;&gt;&lt;p style=&quot;align:center;margin-left:0;margin-right:0;margin-top:0px;margin-bottom:0px;text-indent:0;valign:middle;direction:ltr;&quot;&gt;&lt;font style=&quot;font-size:14.11px;font-family:Arial;color:#000000;direction:ltr;letter-spacing:0px;line-height:120%;opacity:1&quot;&gt;Maverik&lt;/font&gt;&lt;/p&gt;&lt;/div&gt;" style="verticalAlign=middle;align=center;vsdxID=1342;fillColor=none;gradientColor=none;shape=stencil(nZBLDoAgDERP0z3SIyjew0SURgSD+Lu9kMZoXLhwN9O+tukAlrNpJg1SzDH4QW/URgNYgZTkjA4UkwJUgGXng+6DX1zLfmoymdXo17xh5zmRJ6Q42BWCfc2oJfdAr+Yv+AP9Cb7OJ3H/2JG1HNGz/84klThPVCc=);strokeColor=none;points=[];labelBackgroundColor=none;rounded=0;html=1;whiteSpace=wrap;" vertex="1" parent="_ri6LobGK2kgGPJhY-P0-472">
          <mxGeometry y="124" width="220" height="11" as="geometry" />
        </mxCell>
        <mxCell id="_ri6LobGK2kgGPJhY-P0-474" style="vsdxID=1343;fillColor=none;gradientColor=none;strokeColor=none;points=[];labelBackgroundColor=none;rounded=0;html=1;whiteSpace=wrap;" vertex="1" parent="_ri6LobGK2kgGPJhY-P0-472">
          <mxGeometry x="74" width="179" height="100" as="geometry" />
        </mxCell>
        <mxCell id="_ri6LobGK2kgGPJhY-P0-475" style="vsdxID=1344;fillColor=none;gradientColor=none;strokeColor=none;points=[[0.5,0.54,0]];labelBackgroundColor=none;rounded=0;html=1;whiteSpace=wrap;" vertex="1" parent="_ri6LobGK2kgGPJhY-P0-474">
          <mxGeometry width="72" height="100" as="geometry" />
        </mxCell>
        <mxCell id="_ri6LobGK2kgGPJhY-P0-476" style="vsdxID=1345;fillColor=#FF00FF;gradientColor=none;fillOpacity=0;strokeOpacity=0;shape=stencil(vVRBcoMwDHwNRzS2hTE+p+k/PI0BTylkDGno72tKmCAoNIe2N1taSbuSRhEe2tKcbSRY2/nm1V7dqSsjfIqEcHVpvevCK8JjhIe88bbwzaU+jf+zGZDD6615HzL0Y1wmQeghSrCPm4WDVF+W5zGgcvUsgDNG4EpClj4O5wlkuA1PQ/GEBLBtMM0sEuDJDhiYoDrTBd74l+D1E5NAdMT7W0CCU2OmnKhAKypvktvHpndt7JvOdK6pCeHK+MLGoVycV6YgrvZq7Xll/laQ5ICktk5AyW1BXAFfKJJA9QzLkNGcCJn+L0UP7CJd3iCJ0f4jgtI7Q02nFt2nGuac/TBV1NOq/EkXVhy5XnGUhOKe8N+iyOcUw+N+QXJXVeMBmvuXFyeYxmuFx08=);points=[[0.5,0.54,0]];labelBackgroundColor=none;rounded=0;html=1;whiteSpace=wrap;" vertex="1" parent="_ri6LobGK2kgGPJhY-P0-475">
          <mxGeometry width="72" height="100" as="geometry" />
        </mxCell>
        <mxCell id="_ri6LobGK2kgGPJhY-P0-477" style="vsdxID=1346;fillColor=#ffffff;gradientColor=#e1d8c1;gradientDirection=north;shape=stencil(fVHbEoIgEP0aHmFQvD6X/QeTqEwEzkJpfx9ETtrtbffc2GUR29mBjwKl1DowJzHJ1g2I7VGaSj0IkM5XiDWI7ToDogdz0W3sRx6UoTqba0iYo4+VpM6DK6W3iCSUPvpDlCupV/KFXMTeXlW/5UVC8mxj+JO9TfbWolyLORw9C0tyQaokGmAZPMlIWUdstV35dTs6Yz5Li8E47qTRmxEUh15g/yDuFO83lJ2EGD/g54i+eP1zJ5WKZ1rz73fxULwpa+4=);strokeColor=#ffffff;spacingTop=-3;spacingBottom=-3;spacingLeft=-3;spacingRight=-3;points=[[0.5,0.54,0]];labelBackgroundColor=none;rounded=0;html=1;whiteSpace=wrap;" vertex="1" parent="_ri6LobGK2kgGPJhY-P0-475">
          <mxGeometry width="72" height="39" as="geometry" />
        </mxCell>
        <mxCell id="_ri6LobGK2kgGPJhY-P0-478" style="vsdxID=1347;fillColor=#ffffff;gradientColor=#c9ba96;shape=stencil(rVJBEoMgDHwNRxkEHfFs7T+YisqUihNptb8vFDtVO3rqLcnuJiwJYsXQil4iSgYL5ipHVdkWsROiVHWtBGVdhFiJWFEbkA2Ye1eFvBee6aObefgOU9DFhHgNJc85zzFP35VzoAu4OBQ+9CzBMQ8KmCUpxykLpZm1bjlnUyQmNURgrLDKdCtMC2hk5EZFtRbNChpGKftFOV4+TqtO7o3lMc6SIycEp1snGWZ05eTne8h/3ZB9N3mO8+R4Ny747rVWWoezWOLbO3ClcEOsfAE=);strokeColor=#ffffff;spacingTop=-3;spacingBottom=-3;spacingLeft=-3;spacingRight=-3;points=[[0.5,0.54,0]];labelBackgroundColor=none;rounded=0;html=1;whiteSpace=wrap;" vertex="1" parent="_ri6LobGK2kgGPJhY-P0-475">
          <mxGeometry y="24" width="27" height="75" as="geometry" />
        </mxCell>
        <mxCell id="_ri6LobGK2kgGPJhY-P0-479" style="vsdxID=1348;fillColor=#ffffff;gradientColor=#b6a06d;shape=stencil(UzV2Ls5ILEhVNTIoLinKz04tz0wpyVA1dlE1MsrMy0gtyiwBslSNXVWNndPyi1LTi/JL81Ig/IJEkEoQKze/DGRCBUSfAUiHkUElhGdkoWdqBhZxgyjOyczDqdjQwAC3UpgkTLG5oZ65EfHK8ZhMwMVABsKvaZk5OZCgQpZHDxugECRcjV0B);strokeColor=#ffffff;spacingTop=-3;spacingBottom=-3;spacingLeft=-3;spacingRight=-3;points=[[0.5,0.54,0]];labelBackgroundColor=none;rounded=0;html=1;whiteSpace=wrap;" vertex="1" parent="_ri6LobGK2kgGPJhY-P0-475">
          <mxGeometry x="27" y="14" width="44" height="85" as="geometry" />
        </mxCell>
        <mxCell id="_ri6LobGK2kgGPJhY-P0-480" value="&lt;div style=&quot;font-size: 1px&quot;&gt;&lt;/div&gt;" style="verticalAlign=middle;align=center;vsdxID=1349;fillColor=#000000;gradientColor=none;shape=stencil(jZLdEoIgEIWfhksZBPzp2uw9mERlMnFWSnv7MHQSraa73bPfgV0WxLK+Fp1ElPQG9EUOqjA1YkdEqWprCcrYCLEcsazUICvQt7ZweScmcoqu+j6dMDpfSMjkoeQx5xyn7KWcHN6odoXHIY64ZyDfYf9kynHIf8CYUI9P4w0v4GyrsHRiG3U8zAbOcJQ4aWZYgg+JP94y7hiIUfUBaCOM0q3XcCOgkoG9LigbUXmlfpCy28kfB9q+bBLhNP4f3y3CBu8luv2va9uFW8l9FpY/AQ==);strokeColor=#000000;spacingTop=-3;spacingBottom=-3;spacingLeft=-3;spacingRight=-3;points=[[0.5,0.54,0]];labelBackgroundColor=none;rounded=0;html=1;whiteSpace=wrap;" vertex="1" parent="_ri6LobGK2kgGPJhY-P0-475">
          <mxGeometry width="72" height="100" as="geometry" />
        </mxCell>
        <mxCell id="_ri6LobGK2kgGPJhY-P0-481" style="vsdxID=1350;rotation=340;fillColor=#FFFFFF;gradientColor=#339966;shape=stencil(vVHLDsIgEPwajiQI6RfU+h8bu22JCGRB2/69kG1iazx58DazM/vIjjBtmiCi0CplCjecbZ8nYc5Ca+snJJsLEqYTph0C4Ujh4XvmEaqzont41gkL96naodXKrGF6YSfQtUi0OXXDVlqPfJNP6usotUhYbJIUMmQb/GGrAxpRljVycDBuc1hKM2LclX8/7H9nFfB+82Cd45T2+mcspcSRmu4F);strokeColor=#000000;points=[[0.5,0.54,0]];labelBackgroundColor=none;rounded=0;html=1;whiteSpace=wrap;" vertex="1" parent="_ri6LobGK2kgGPJhY-P0-475">
          <mxGeometry x="10" y="61" width="4" height="5" as="geometry" />
        </mxCell>
        <mxCell id="_ri6LobGK2kgGPJhY-P0-482" style="vsdxID=1351;fillColor=#FFFFFF;gradientColor=#e7e4cd;gradientDirection=north;shape=stencil(xZLdDoIwDIWfZpcsowMc1wrvseiARWWkzL+3d6So+BO8Mt61PafdvuQwuewb3RkGovfotuZkN75hcsUAbNsYtD5UTBZMLiuHpkZ3aDfUd3pwDtXeHYcLZ9oTwwaIy7QryahxHRQcjaByLhS58XKbKZ7kNBttsXi+mGY8htER6bPtI3Ree+ta0pXkaUb6TmNtovBqVO10/fS9/mRM9zYuvwNBzPNkHip+Z0phlmmhuMj+x5RIrtQXJvgAlcxC3ftfIYXiEULK71R7DWwYUdhlcQU=);strokeColor=#000000;strokeWidth=2;points=[[0.5,0.54,0]];labelBackgroundColor=none;rounded=0;html=1;whiteSpace=wrap;" vertex="1" parent="_ri6LobGK2kgGPJhY-P0-475">
          <mxGeometry x="4" y="74" width="18" height="16" as="geometry" />
        </mxCell>
        <mxCell id="_ri6LobGK2kgGPJhY-P0-483" style="vsdxID=1352;fillColor=none;gradientColor=none;strokeColor=none;points=[[0.5,0.54,0]];labelBackgroundColor=none;rounded=0;html=1;whiteSpace=wrap;" vertex="1" parent="_ri6LobGK2kgGPJhY-P0-475">
          <mxGeometry x="3" y="35" width="19" height="21" as="geometry" />
        </mxCell>
        <mxCell id="_ri6LobGK2kgGPJhY-P0-484" style="vsdxID=1353;fillColor=#000000;gradientColor=none;shape=stencil(vZPdcoMgEIWfhkt3gEXQ6zR5D6ZBZWLFQfLTty8W+kPatDdt7tZzzsLHjktwswx6NoTTJXh3MGe7DwPBB8K5nQbjbYgVwS3BTee86b07Tvv0Pes1uVZP7rSecEl9CMjWJk6fk8AECHxVdimv/WN0fc5zFFAnn/rcgi0H0SYtx1oJvCnPpTQnKn2xS+Vd0MG6KbnZG7XvTRVvrLpR94W1nI2Zv8jfMgpQsiRU0Kpf+Jr4bnEvwngdsKshNgwUFpA1MFXOEFD+KSK7jYhAm5Iw4siCjwLlBV8Nqr7XCOX7tN74GANeAv7wc/8LYSw+9qyz45jW9LN/vZdRSjuN2xc=);strokeColor=#000000;points=[[0.5,0.54,0]];labelBackgroundColor=none;rounded=0;html=1;whiteSpace=wrap;" vertex="1" parent="_ri6LobGK2kgGPJhY-P0-483">
          <mxGeometry width="19" height="11" as="geometry" />
        </mxCell>
        <mxCell id="_ri6LobGK2kgGPJhY-P0-485" style="vsdxID=1354;fillColor=#FFFFFF;gradientColor=#e7e4cd;shape=stencil(pVFLDoIwED1NlzTTlmBZ+7lHIwUakZKhCt7e4mAUxZW7mffpvOYxte1r01kmoQ/oT3ZwRaiZ2jEpXVtbdCFOTO2Z2pYebYX+0ha0d2ZSTtPZX6cXRvIJgMkj4UZ7rjmIB3IgucFjZPEpl4JrRQ6cLUJonueEzTLJ083iWQkc9CxJzOj6BH0wwfmWeJ1zugqNwcom8WpSNqYido7YD9Z2X/BqTg1cZMuYWcqFXKT8/ff1kPBfwji8Wihd01CJ7/xnaxGixtX+Dg==);strokeColor=#FFFFFF;strokeWidth=0;points=[[0.5,0.54,0]];labelBackgroundColor=none;rounded=0;html=1;whiteSpace=wrap;" vertex="1" parent="_ri6LobGK2kgGPJhY-P0-483">
          <mxGeometry x="5" y="5" width="5" height="3" as="geometry" />
        </mxCell>
        <mxCell id="_ri6LobGK2kgGPJhY-P0-486" style="vsdxID=1355;fillColor=#000000;gradientColor=#e7e4cd;fillOpacity=40;shape=stencil(rVJLEoIwDD1Nl3RK4lBc+7lHRwt0rJQJVfD2lqkfQHTlLp/3krwkDDdtpRrNQLSe3El35ugrhlsGYOpKk/HBYrhjuCkc6ZLcpT5Gv1EDcrDO7jpU6CNPDAwQt7G3j0Br6q9ARC5xDFZ0CFl6gEGmHFaRQU8KZDyPoQcqFdOiL79PVG/ahJxX3rh6MoBVVOoktEsKq8pJqu20bj7Ci2rmrbOMg/yhJxcc1jM9KLmc6Fna5b+0pOPhgvG+Z2Gsje8wzs/vH0Lxd3B3Bw==);strokeColor=none;strokeWidth=0;points=[[0.5,0.54,0]];labelBackgroundColor=none;rounded=0;html=1;whiteSpace=wrap;" vertex="1" parent="_ri6LobGK2kgGPJhY-P0-483">
          <mxGeometry y="6" width="18" height="14" as="geometry" />
        </mxCell>
        <mxCell id="_ri6LobGK2kgGPJhY-P0-487" style="vsdxID=1356;fillColor=#000000;gradientColor=none;shape=stencil(rVLLEoIwDPyaHun0gRbOiP/R0QIdK2XSqvj3Fouj1UEv3pLNbpKdBPHKdXJQiBHnwR7URe99h/gGMab7ToH2IUK8RrxqLKgW7Knfx3yQE3OKjvY8dRijjkwKRq4xoxSz8o5sI1nCLlRhJrN8hVciKmCW8HKNSRGxmUbJW9dHPmZy1C4D66XXtk82MBJalYV5WWNkm5TcRanhA543NLpXy6OLAgv6xZCgOOepoZwLLMrEUNrzv2bospkftwnB86qNNiY+xWv9/QsCFD+I1zc=);strokeColor=none;points=[[0.5,0.54,0]];labelBackgroundColor=none;rounded=0;html=1;whiteSpace=wrap;" vertex="1" parent="_ri6LobGK2kgGPJhY-P0-483">
          <mxGeometry y="7" width="18" height="10" as="geometry" />
        </mxCell>
        <mxCell id="_ri6LobGK2kgGPJhY-P0-488" style="vsdxID=1357;fillColor=none;gradientColor=none;fillOpacity=40;shape=stencil(dVDRDoIwDPyaPY6M1ojviP+xyBiLuJFuCv69W4YKGt/uendtcwxr38tRMRA+kLuoybShZ3hkAMb2ikyIiGHDsO4cKU3uZtvMR5mcCV3dPW2Yc06kBIjHmp2ycTD2rxGxqHBtlnSOKi1mqMoCdjlBrwjsi0MeLa5SbJe++czlbDwnF2Qwzm4eGCRpxeM53g1SbyQ/KTX+jJcHI/h0kOtba999xVHuGpsn);strokeColor=#FFFFFF;points=[[0.5,0.54,0]];labelBackgroundColor=none;rounded=0;html=1;whiteSpace=wrap;" vertex="1" parent="_ri6LobGK2kgGPJhY-P0-483">
          <mxGeometry y="6" width="18" height="14" as="geometry" />
        </mxCell>
        <mxCell id="_ri6LobGK2kgGPJhY-P0-489" style="vsdxID=1358;fillColor=#000000;gradientColor=#e7e4cd;fillOpacity=40;shape=stencil(fVDLDsIgEPwajjR0N2n1XPU/iKUtsUKzoK1/L4QawYO3mZ0HZBh2bpKLYiCcJ3tTq+79xPDEALSZFGkfEMMzw26wpEayD9MnvsjojOhun7FhS7laiJgB8Sr5JZlnbf6Ym6aCNrdLugaVdjscRAXHlKA9gthWKfIpLSt3tnG5acfJeum1NYU2SxoVD0/xYZZjIblVqSU71/nnAviukAbMtd/Fwimtjec3);strokeColor=#000000;points=[[0.5,0.54,0]];labelBackgroundColor=none;rounded=0;html=1;whiteSpace=wrap;" vertex="1" parent="_ri6LobGK2kgGPJhY-P0-483">
          <mxGeometry y="6" width="18" height="14" as="geometry" />
        </mxCell>
        <mxCell id="_ri6LobGK2kgGPJhY-P0-490" style="vsdxID=1359;fillColor=none;gradientColor=none;strokeColor=none;points=[[0.5,0.54,0]];labelBackgroundColor=none;rounded=0;html=1;whiteSpace=wrap;" vertex="1" parent="_ri6LobGK2kgGPJhY-P0-475">
          <mxGeometry x="36" y="65" width="25" height="35" as="geometry" />
        </mxCell>
        <mxCell id="_ri6LobGK2kgGPJhY-P0-491" style="vsdxID=1360;fillColor=#FFFFFF;gradientColor=#4e8ec2;gradientDirection=north;shape=stencil(vVHLDsIgEPwajiQI6RfU+h8bu22JCGRB2/69kG1iazx58DazM/vIjjBtmiCi0CplCjecbZ8nYc5Ca+snJJsLEqYTph0C4Ujh4XvmEaqzont41gkL96naodXKrGF6YSfQtUi0OXXDVlqPfJNP6usotUhYbJIUMmQb/GGrAxpRljVycDBuc1hKM2LclX8/7H9nFfB+82Cd45T2+mcspcSRmu4F);strokeColor=#4e8ec2;points=[[0.5,0.54,0]];labelBackgroundColor=none;rounded=0;html=1;whiteSpace=wrap;" vertex="1" parent="_ri6LobGK2kgGPJhY-P0-490">
          <mxGeometry y="1" width="24" height="11" as="geometry" />
        </mxCell>
        <mxCell id="_ri6LobGK2kgGPJhY-P0-492" value="&lt;div style=&quot;font-size: 1px&quot;&gt;&lt;/div&gt;" style="verticalAlign=middle;align=center;vsdxID=1361;fillColor=#FFFFFF;gradientColor=#4e8ec2;shape=stencil(lVLbDsIgDP0aHlkYZOqep/4HcWwjIiwF3fx7IczILpr41vac0/akRayyHe8FosQ6MFcxyNp1iB0RpVJ3AqTzEWInxKrGgGjB3HUd854HZohu5hE6jFFHgoKSZ5qdI1FJ/ZV4IBlhKZnDxaMwkQsP0yiASUFJto+ViVOWWVksm7I3B/NRWgzGcSeNnq2gOLQC+4G4UbydQXYQol+VN/3k5If1pZuVlV0587LV6m8P+baHPF3MB59LNlKp+Agpvry8L8WvYacX);strokeColor=#4e8ec2;spacingTop=-3;spacingBottom=-3;spacingLeft=-3;spacingRight=-3;points=[[0.5,0.54,0]];labelBackgroundColor=none;rounded=0;html=1;whiteSpace=wrap;" vertex="1" parent="_ri6LobGK2kgGPJhY-P0-490">
          <mxGeometry y="6" width="24" height="27" as="geometry" />
        </mxCell>
        <mxCell id="_ri6LobGK2kgGPJhY-P0-493" value="&lt;div style=&quot;font-size: 1px&quot;&gt;&lt;/div&gt;" style="verticalAlign=middle;align=center;vsdxID=1362;fillColor=#000000;gradientColor=none;shape=stencil(nVLLEoIwDPyaHsuUVgY4o/5HRwp0RMqkVfDvbW1VBB+jt2R3s0kmQazQDe8FokQbUHsxyNI0iK0RpbJrBEhjI8Q2iBWVAlGDOnalz3vulC46qJNzGH1dTIiroeQc8jQi9IpsvZzDzrIQ5ElQw0J+M1zYxVngMR+lxqAMN1J1T+qWQy2wbYWrlteh1FN6EKKfwGQ6XCs78a51xqIV+7TJfXJ4MaxH8jzKk7lrGv+3EPl5oa/HscHjsP4nptz8CSzkH4htLg==);strokeColor=#000000;spacingTop=-3;spacingBottom=-3;spacingLeft=-3;spacingRight=-3;points=[[0.5,0.54,0]];labelBackgroundColor=none;rounded=0;html=1;whiteSpace=wrap;" vertex="1" parent="_ri6LobGK2kgGPJhY-P0-490">
          <mxGeometry y="1" width="24" height="33" as="geometry" />
        </mxCell>
        <mxCell id="_ri6LobGK2kgGPJhY-P0-515" style="vsdxID=1185;fillColor=#FFFF00;gradientColor=#ffffff;shape=stencil(jZHdDsIgDIWfprcLUsceYM73WDImjQgLw7+3F9IYN2eId+e032maFrCdTT9pkGKOwZ/1nYZoAA8gJTmjA8WkADvAdvRBn4K/uoH91Gcyq4u/5QkPzomckOLJrmZ7ZNKSW5AKK8QVXYDrDdwU6J34fw1UlWpW9Dv9E99vcCzQpTWS+BxxJGv5B8v+99FTiR+G3Qs=);strokeColor=#1f477d;points=[[0.5,0.5,0]];labelBackgroundColor=#ffffff;rounded=0;html=1;whiteSpace=wrap;" vertex="1" parent="1">
          <mxGeometry x="1094" y="259" width="120" height="32" as="geometry" />
        </mxCell>
        <mxCell id="_ri6LobGK2kgGPJhY-P0-520" value="" style="sketch=0;aspect=fixed;html=1;points=[];align=center;image;fontSize=12;image=img/lib/mscae/Kubernetes.svg;" vertex="1" parent="1">
          <mxGeometry x="1522" y="70" width="50" height="48" as="geometry" />
        </mxCell>
        <mxCell id="_ri6LobGK2kgGPJhY-P0-496" style="vsdxID=1118;fillColor=none;gradientColor=none;strokeColor=none;points=[];labelBackgroundColor=none;rounded=0;html=1;whiteSpace=wrap;" vertex="1" parent="1">
          <mxGeometry x="1360" y="390" width="253" height="135" as="geometry" />
        </mxCell>
        <mxCell id="_ri6LobGK2kgGPJhY-P0-497" value="&lt;div style=&quot;font-size: 1px&quot;&gt;&lt;p style=&quot;align:center;margin-left:0;margin-right:0;margin-top:0px;margin-bottom:0px;text-indent:0;valign:middle;direction:ltr;&quot;&gt;&lt;font style=&quot;font-size:14.11px;font-family:Arial;color:#000000;direction:ltr;letter-spacing:0px;line-height:120%;opacity:1&quot;&gt;Django/Python Pod&lt;/font&gt;&lt;font style=&quot;font-size:14.11px;font-family:Arial;color:#000000;direction:ltr;letter-spacing:0px;line-height:120%;opacity:1&quot;&gt;&lt;br&gt;&lt;/font&gt;&lt;font style=&quot;font-size:14.11px;font-family:Arial;color:#000000;direction:ltr;letter-spacing:0px;line-height:120%;opacity:1&quot;&gt;&lt;br&gt;&lt;/font&gt;&lt;/p&gt;&lt;/div&gt;" style="verticalAlign=middle;align=center;vsdxID=1119;fillColor=none;gradientColor=none;shape=stencil(nZBLDoAgDERP0z3SIyjew0SURgSD+Lu9kMZoXLhwN9O+tukAlrNpJg1SzDH4QW/URgNYgZTkjA4UkwJUgGXng+6DX1zLfmoymdXo17xh5zmRJ6Q42BWCfc2oJfdAr+Yv+AP9Cb7OJ3H/2JG1HNGz/84klThPVCc=);strokeColor=none;points=[];labelBackgroundColor=none;rounded=0;html=1;whiteSpace=wrap;" vertex="1" parent="_ri6LobGK2kgGPJhY-P0-496">
          <mxGeometry x="1" y="124" width="220" height="11" as="geometry" />
        </mxCell>
        <mxCell id="_ri6LobGK2kgGPJhY-P0-498" style="vsdxID=1120;fillColor=none;gradientColor=none;strokeColor=none;points=[];labelBackgroundColor=none;rounded=0;html=1;whiteSpace=wrap;" vertex="1" parent="_ri6LobGK2kgGPJhY-P0-496">
          <mxGeometry x="74" width="179" height="100" as="geometry" />
        </mxCell>
        <mxCell id="_ri6LobGK2kgGPJhY-P0-499" style="vsdxID=1121;fillColor=none;gradientColor=none;strokeColor=none;points=[[0.5,0.54,0]];labelBackgroundColor=none;rounded=0;html=1;whiteSpace=wrap;" vertex="1" parent="_ri6LobGK2kgGPJhY-P0-498">
          <mxGeometry width="72" height="100" as="geometry" />
        </mxCell>
        <mxCell id="_ri6LobGK2kgGPJhY-P0-500" style="vsdxID=1122;fillColor=#FF00FF;gradientColor=none;fillOpacity=0;strokeOpacity=0;shape=stencil(vVRBcoMwDHwNRzS2hTE+p+k/PI0BTylkDGno72tKmCAoNIe2N1taSbuSRhEe2tKcbSRY2/nm1V7dqSsjfIqEcHVpvevCK8JjhIe88bbwzaU+jf+zGZDD6615HzL0Y1wmQeghSrCPm4WDVF+W5zGgcvUsgDNG4EpClj4O5wlkuA1PQ/GEBLBtMM0sEuDJDhiYoDrTBd74l+D1E5NAdMT7W0CCU2OmnKhAKypvktvHpndt7JvOdK6pCeHK+MLGoVycV6YgrvZq7Xll/laQ5ICktk5AyW1BXAFfKJJA9QzLkNGcCJn+L0UP7CJd3iCJ0f4jgtI7Q02nFt2nGuac/TBV1NOq/EkXVhy5XnGUhOKe8N+iyOcUw+N+QXJXVeMBmvuXFyeYxmuFx08=);points=[[0.5,0.54,0]];labelBackgroundColor=none;rounded=0;html=1;whiteSpace=wrap;" vertex="1" parent="_ri6LobGK2kgGPJhY-P0-499">
          <mxGeometry width="72" height="100" as="geometry" />
        </mxCell>
        <mxCell id="_ri6LobGK2kgGPJhY-P0-501" style="vsdxID=1123;fillColor=#ffffff;gradientColor=#e1d8c1;gradientDirection=north;shape=stencil(fVHbEoIgEP0aHmFQvD6X/QeTqEwEzkJpfx9ETtrtbffc2GUR29mBjwKl1DowJzHJ1g2I7VGaSj0IkM5XiDWI7ToDogdz0W3sRx6UoTqba0iYo4+VpM6DK6W3iCSUPvpDlCupV/KFXMTeXlW/5UVC8mxj+JO9TfbWolyLORw9C0tyQaokGmAZPMlIWUdstV35dTs6Yz5Li8E47qTRmxEUh15g/yDuFO83lJ2EGD/g54i+eP1zJ5WKZ1rz73fxULwpa+4=);strokeColor=#ffffff;spacingTop=-3;spacingBottom=-3;spacingLeft=-3;spacingRight=-3;points=[[0.5,0.54,0]];labelBackgroundColor=none;rounded=0;html=1;whiteSpace=wrap;" vertex="1" parent="_ri6LobGK2kgGPJhY-P0-499">
          <mxGeometry width="72" height="39" as="geometry" />
        </mxCell>
        <mxCell id="_ri6LobGK2kgGPJhY-P0-502" style="vsdxID=1124;fillColor=#ffffff;gradientColor=#c9ba96;shape=stencil(rVJBEoMgDHwNRxkEHfFs7T+YisqUihNptb8vFDtVO3rqLcnuJiwJYsXQil4iSgYL5ipHVdkWsROiVHWtBGVdhFiJWFEbkA2Ye1eFvBee6aObefgOU9DFhHgNJc85zzFP35VzoAu4OBQ+9CzBMQ8KmCUpxykLpZm1bjlnUyQmNURgrLDKdCtMC2hk5EZFtRbNChpGKftFOV4+TqtO7o3lMc6SIycEp1snGWZ05eTne8h/3ZB9N3mO8+R4Ny747rVWWoezWOLbO3ClcEOsfAE=);strokeColor=#ffffff;spacingTop=-3;spacingBottom=-3;spacingLeft=-3;spacingRight=-3;points=[[0.5,0.54,0]];labelBackgroundColor=none;rounded=0;html=1;whiteSpace=wrap;" vertex="1" parent="_ri6LobGK2kgGPJhY-P0-499">
          <mxGeometry y="24" width="27" height="75" as="geometry" />
        </mxCell>
        <mxCell id="_ri6LobGK2kgGPJhY-P0-503" style="vsdxID=1125;fillColor=#ffffff;gradientColor=#b6a06d;shape=stencil(UzV2Ls5ILEhVNTIoLinKz04tz0wpyVA1dlE1MsrMy0gtyiwBslSNXVWNndPyi1LTi/JL81Ig/IJEkEoQKze/DGRCBUSfAUiHkUElhGdkoWdqBhZxgyjOyczDqdjQwAC3UpgkTLG5oZ65EfHK8ZhMwMVABsKvaZk5OZCgQpZHDxugECRcjV0B);strokeColor=#ffffff;spacingTop=-3;spacingBottom=-3;spacingLeft=-3;spacingRight=-3;points=[[0.5,0.54,0]];labelBackgroundColor=none;rounded=0;html=1;whiteSpace=wrap;" vertex="1" parent="_ri6LobGK2kgGPJhY-P0-499">
          <mxGeometry x="27" y="14" width="44" height="85" as="geometry" />
        </mxCell>
        <mxCell id="_ri6LobGK2kgGPJhY-P0-504" value="&lt;div style=&quot;font-size: 1px&quot;&gt;&lt;/div&gt;" style="verticalAlign=middle;align=center;vsdxID=1126;fillColor=#000000;gradientColor=none;shape=stencil(jZLdEoIgEIWfhksZBPzp2uw9mERlMnFWSnv7MHQSraa73bPfgV0WxLK+Fp1ElPQG9EUOqjA1YkdEqWprCcrYCLEcsazUICvQt7ZweScmcoqu+j6dMDpfSMjkoeQx5xyn7KWcHN6odoXHIY64ZyDfYf9kynHIf8CYUI9P4w0v4GyrsHRiG3U8zAbOcJQ4aWZYgg+JP94y7hiIUfUBaCOM0q3XcCOgkoG9LigbUXmlfpCy28kfB9q+bBLhNP4f3y3CBu8luv2va9uFW8l9FpY/AQ==);strokeColor=#000000;spacingTop=-3;spacingBottom=-3;spacingLeft=-3;spacingRight=-3;points=[[0.5,0.54,0]];labelBackgroundColor=none;rounded=0;html=1;whiteSpace=wrap;" vertex="1" parent="_ri6LobGK2kgGPJhY-P0-499">
          <mxGeometry width="72" height="100" as="geometry" />
        </mxCell>
        <mxCell id="_ri6LobGK2kgGPJhY-P0-505" style="vsdxID=1127;rotation=340;fillColor=#FFFFFF;gradientColor=#339966;shape=stencil(vVHLDsIgEPwajiQI6RfU+h8bu22JCGRB2/69kG1iazx58DazM/vIjjBtmiCi0CplCjecbZ8nYc5Ca+snJJsLEqYTph0C4Ujh4XvmEaqzont41gkL96naodXKrGF6YSfQtUi0OXXDVlqPfJNP6usotUhYbJIUMmQb/GGrAxpRljVycDBuc1hKM2LclX8/7H9nFfB+82Cd45T2+mcspcSRmu4F);strokeColor=#000000;points=[[0.5,0.54,0]];labelBackgroundColor=none;rounded=0;html=1;whiteSpace=wrap;" vertex="1" parent="_ri6LobGK2kgGPJhY-P0-499">
          <mxGeometry x="10" y="61" width="4" height="5" as="geometry" />
        </mxCell>
        <mxCell id="_ri6LobGK2kgGPJhY-P0-506" style="vsdxID=1128;fillColor=#FFFFFF;gradientColor=#e7e4cd;gradientDirection=north;shape=stencil(xZLdDoIwDIWfZpcsowMc1wrvseiARWWkzL+3d6So+BO8Mt61PafdvuQwuewb3RkGovfotuZkN75hcsUAbNsYtD5UTBZMLiuHpkZ3aDfUd3pwDtXeHYcLZ9oTwwaIy7QryahxHRQcjaByLhS58XKbKZ7kNBttsXi+mGY8htER6bPtI3Ree+ta0pXkaUb6TmNtovBqVO10/fS9/mRM9zYuvwNBzPNkHip+Z0phlmmhuMj+x5RIrtQXJvgAlcxC3ftfIYXiEULK71R7DWwYUdhlcQU=);strokeColor=#000000;strokeWidth=2;points=[[0.5,0.54,0]];labelBackgroundColor=none;rounded=0;html=1;whiteSpace=wrap;" vertex="1" parent="_ri6LobGK2kgGPJhY-P0-499">
          <mxGeometry x="4" y="74" width="18" height="16" as="geometry" />
        </mxCell>
        <mxCell id="_ri6LobGK2kgGPJhY-P0-507" style="vsdxID=1129;fillColor=none;gradientColor=none;strokeColor=none;points=[[0.5,0.54,0]];labelBackgroundColor=none;rounded=0;html=1;whiteSpace=wrap;" vertex="1" parent="_ri6LobGK2kgGPJhY-P0-499">
          <mxGeometry x="3" y="35" width="19" height="21" as="geometry" />
        </mxCell>
        <mxCell id="_ri6LobGK2kgGPJhY-P0-508" style="vsdxID=1130;fillColor=#000000;gradientColor=none;shape=stencil(vZPdcoMgEIWfhkt3gEXQ6zR5D6ZBZWLFQfLTty8W+kPatDdt7tZzzsLHjktwswx6NoTTJXh3MGe7DwPBB8K5nQbjbYgVwS3BTee86b07Tvv0Pes1uVZP7rSecEl9CMjWJk6fk8AECHxVdimv/WN0fc5zFFAnn/rcgi0H0SYtx1oJvCnPpTQnKn2xS+Vd0MG6KbnZG7XvTRVvrLpR94W1nI2Zv8jfMgpQsiRU0Kpf+Jr4bnEvwngdsKshNgwUFpA1MFXOEFD+KSK7jYhAm5Iw4siCjwLlBV8Nqr7XCOX7tN74GANeAv7wc/8LYSw+9qyz45jW9LN/vZdRSjuN2xc=);strokeColor=#000000;points=[[0.5,0.54,0]];labelBackgroundColor=none;rounded=0;html=1;whiteSpace=wrap;" vertex="1" parent="_ri6LobGK2kgGPJhY-P0-507">
          <mxGeometry width="19" height="11" as="geometry" />
        </mxCell>
        <mxCell id="_ri6LobGK2kgGPJhY-P0-509" style="vsdxID=1131;fillColor=#FFFFFF;gradientColor=#e7e4cd;shape=stencil(pVFLDoIwED1NlzTTlmBZ+7lHIwUakZKhCt7e4mAUxZW7mffpvOYxte1r01kmoQ/oT3ZwRaiZ2jEpXVtbdCFOTO2Z2pYebYX+0ha0d2ZSTtPZX6cXRvIJgMkj4UZ7rjmIB3IgucFjZPEpl4JrRQ6cLUJonueEzTLJ083iWQkc9CxJzOj6BH0wwfmWeJ1zugqNwcom8WpSNqYido7YD9Z2X/BqTg1cZMuYWcqFXKT8/ff1kPBfwji8Wihd01CJ7/xnaxGixtX+Dg==);strokeColor=#FFFFFF;strokeWidth=0;points=[[0.5,0.54,0]];labelBackgroundColor=none;rounded=0;html=1;whiteSpace=wrap;" vertex="1" parent="_ri6LobGK2kgGPJhY-P0-507">
          <mxGeometry x="5" y="5" width="5" height="3" as="geometry" />
        </mxCell>
        <mxCell id="_ri6LobGK2kgGPJhY-P0-510" style="vsdxID=1132;fillColor=#000000;gradientColor=#e7e4cd;fillOpacity=40;shape=stencil(rVJLEoIwDD1Nl3RK4lBc+7lHRwt0rJQJVfD2lqkfQHTlLp/3krwkDDdtpRrNQLSe3El35ugrhlsGYOpKk/HBYrhjuCkc6ZLcpT5Gv1EDcrDO7jpU6CNPDAwQt7G3j0Br6q9ARC5xDFZ0CFl6gEGmHFaRQU8KZDyPoQcqFdOiL79PVG/ahJxX3rh6MoBVVOoktEsKq8pJqu20bj7Ci2rmrbOMg/yhJxcc1jM9KLmc6Fna5b+0pOPhgvG+Z2Gsje8wzs/vH0Lxd3B3Bw==);strokeColor=none;strokeWidth=0;points=[[0.5,0.54,0]];labelBackgroundColor=none;rounded=0;html=1;whiteSpace=wrap;" vertex="1" parent="_ri6LobGK2kgGPJhY-P0-507">
          <mxGeometry y="6" width="18" height="14" as="geometry" />
        </mxCell>
        <mxCell id="_ri6LobGK2kgGPJhY-P0-511" style="vsdxID=1133;fillColor=#000000;gradientColor=none;shape=stencil(rVLLEoIwDPyaHun0gRbOiP/R0QIdK2XSqvj3Fouj1UEv3pLNbpKdBPHKdXJQiBHnwR7URe99h/gGMab7ToH2IUK8RrxqLKgW7Knfx3yQE3OKjvY8dRijjkwKRq4xoxSz8o5sI1nCLlRhJrN8hVciKmCW8HKNSRGxmUbJW9dHPmZy1C4D66XXtk82MBJalYV5WWNkm5TcRanhA543NLpXy6OLAgv6xZCgOOepoZwLLMrEUNrzv2bospkftwnB86qNNiY+xWv9/QsCFD+I1zc=);strokeColor=none;points=[[0.5,0.54,0]];labelBackgroundColor=none;rounded=0;html=1;whiteSpace=wrap;" vertex="1" parent="_ri6LobGK2kgGPJhY-P0-507">
          <mxGeometry y="7" width="18" height="10" as="geometry" />
        </mxCell>
        <mxCell id="_ri6LobGK2kgGPJhY-P0-512" style="vsdxID=1134;fillColor=none;gradientColor=none;fillOpacity=40;shape=stencil(dVDRDoIwDPyaPY6M1ojviP+xyBiLuJFuCv69W4YKGt/uendtcwxr38tRMRA+kLuoybShZ3hkAMb2ikyIiGHDsO4cKU3uZtvMR5mcCV3dPW2Yc06kBIjHmp2ycTD2rxGxqHBtlnSOKi1mqMoCdjlBrwjsi0MeLa5SbJe++czlbDwnF2Qwzm4eGCRpxeM53g1SbyQ/KTX+jJcHI/h0kOtba999xVHuGpsn);strokeColor=#FFFFFF;points=[[0.5,0.54,0]];labelBackgroundColor=none;rounded=0;html=1;whiteSpace=wrap;" vertex="1" parent="_ri6LobGK2kgGPJhY-P0-507">
          <mxGeometry y="6" width="18" height="14" as="geometry" />
        </mxCell>
        <mxCell id="_ri6LobGK2kgGPJhY-P0-513" style="vsdxID=1135;fillColor=#000000;gradientColor=#e7e4cd;fillOpacity=40;shape=stencil(fVDLDsIgEPwajjR0N2n1XPU/iKUtsUKzoK1/L4QawYO3mZ0HZBh2bpKLYiCcJ3tTq+79xPDEALSZFGkfEMMzw26wpEayD9MnvsjojOhun7FhS7laiJgB8Sr5JZlnbf6Ym6aCNrdLugaVdjscRAXHlKA9gthWKfIpLSt3tnG5acfJeum1NYU2SxoVD0/xYZZjIblVqSU71/nnAviukAbMtd/Fwimtjec3);strokeColor=#000000;points=[[0.5,0.54,0]];labelBackgroundColor=none;rounded=0;html=1;whiteSpace=wrap;" vertex="1" parent="_ri6LobGK2kgGPJhY-P0-507">
          <mxGeometry y="6" width="18" height="14" as="geometry" />
        </mxCell>
        <mxCell id="_ri6LobGK2kgGPJhY-P0-521" value="" style="aspect=fixed;perimeter=ellipsePerimeter;html=1;align=center;shadow=0;dashed=0;fontColor=#4277BB;labelBackgroundColor=#ffffff;fontSize=12;spacingTop=3;image;image=img/lib/ibm/data/data_services.svg;" vertex="1" parent="1">
          <mxGeometry x="2089" y="70" width="60" height="60" as="geometry" />
        </mxCell>
        <mxCell id="_ri6LobGK2kgGPJhY-P0-542" style="vsdxID=1118;fillColor=none;gradientColor=none;strokeColor=none;points=[];labelBackgroundColor=none;rounded=0;html=1;whiteSpace=wrap;" vertex="1" parent="1">
          <mxGeometry x="1490" y="160" width="283.5" height="153.5" as="geometry" />
        </mxCell>
        <mxCell id="_ri6LobGK2kgGPJhY-P0-543" value="&lt;div style=&quot;font-size: 1px&quot;&gt;&lt;p style=&quot;align:center;margin-left:0;margin-right:0;margin-top:0px;margin-bottom:0px;text-indent:0;valign:middle;direction:ltr;&quot;&gt;&lt;font style=&quot;font-size:14.11px;font-family:Arial;color:#000000;direction:ltr;letter-spacing:0px;line-height:120%;opacity:1&quot;&gt;Django/Python Pod&lt;/font&gt;&lt;font style=&quot;font-size:14.11px;font-family:Arial;color:#000000;direction:ltr;letter-spacing:0px;line-height:120%;opacity:1&quot;&gt;&lt;br&gt;&lt;/font&gt;&lt;font style=&quot;font-size:14.11px;font-family:Arial;color:#000000;direction:ltr;letter-spacing:0px;line-height:120%;opacity:1&quot;&gt;&lt;br&gt;&lt;/font&gt;&lt;/p&gt;&lt;/div&gt;" style="verticalAlign=middle;align=center;vsdxID=1119;fillColor=none;gradientColor=none;shape=stencil(nZBLDoAgDERP0z3SIyjew0SURgSD+Lu9kMZoXLhwN9O+tukAlrNpJg1SzDH4QW/URgNYgZTkjA4UkwJUgGXng+6DX1zLfmoymdXo17xh5zmRJ6Q42BWCfc2oJfdAr+Yv+AP9Cb7OJ3H/2JG1HNGz/84klThPVCc=);strokeColor=none;points=[];labelBackgroundColor=none;rounded=0;html=1;whiteSpace=wrap;" vertex="1" parent="_ri6LobGK2kgGPJhY-P0-542">
          <mxGeometry y="124" width="220" height="11" as="geometry" />
        </mxCell>
        <mxCell id="_ri6LobGK2kgGPJhY-P0-544" style="vsdxID=1120;fillColor=none;gradientColor=none;strokeColor=none;points=[];labelBackgroundColor=none;rounded=0;html=1;whiteSpace=wrap;" vertex="1" parent="_ri6LobGK2kgGPJhY-P0-542">
          <mxGeometry x="74" width="179" height="100" as="geometry" />
        </mxCell>
        <mxCell id="_ri6LobGK2kgGPJhY-P0-545" style="vsdxID=1121;fillColor=none;gradientColor=none;strokeColor=none;points=[[0.5,0.54,0]];labelBackgroundColor=none;rounded=0;html=1;whiteSpace=wrap;" vertex="1" parent="_ri6LobGK2kgGPJhY-P0-544">
          <mxGeometry width="72" height="100" as="geometry" />
        </mxCell>
        <mxCell id="_ri6LobGK2kgGPJhY-P0-546" style="vsdxID=1122;fillColor=#FF00FF;gradientColor=none;fillOpacity=0;strokeOpacity=0;shape=stencil(vVRBcoMwDHwNRzS2hTE+p+k/PI0BTylkDGno72tKmCAoNIe2N1taSbuSRhEe2tKcbSRY2/nm1V7dqSsjfIqEcHVpvevCK8JjhIe88bbwzaU+jf+zGZDD6615HzL0Y1wmQeghSrCPm4WDVF+W5zGgcvUsgDNG4EpClj4O5wlkuA1PQ/GEBLBtMM0sEuDJDhiYoDrTBd74l+D1E5NAdMT7W0CCU2OmnKhAKypvktvHpndt7JvOdK6pCeHK+MLGoVycV6YgrvZq7Xll/laQ5ICktk5AyW1BXAFfKJJA9QzLkNGcCJn+L0UP7CJd3iCJ0f4jgtI7Q02nFt2nGuac/TBV1NOq/EkXVhy5XnGUhOKe8N+iyOcUw+N+QXJXVeMBmvuXFyeYxmuFx08=);points=[[0.5,0.54,0]];labelBackgroundColor=none;rounded=0;html=1;whiteSpace=wrap;" vertex="1" parent="_ri6LobGK2kgGPJhY-P0-545">
          <mxGeometry width="72" height="100" as="geometry" />
        </mxCell>
        <mxCell id="_ri6LobGK2kgGPJhY-P0-547" style="vsdxID=1123;fillColor=#ffffff;gradientColor=#e1d8c1;gradientDirection=north;shape=stencil(fVHbEoIgEP0aHmFQvD6X/QeTqEwEzkJpfx9ETtrtbffc2GUR29mBjwKl1DowJzHJ1g2I7VGaSj0IkM5XiDWI7ToDogdz0W3sRx6UoTqba0iYo4+VpM6DK6W3iCSUPvpDlCupV/KFXMTeXlW/5UVC8mxj+JO9TfbWolyLORw9C0tyQaokGmAZPMlIWUdstV35dTs6Yz5Li8E47qTRmxEUh15g/yDuFO83lJ2EGD/g54i+eP1zJ5WKZ1rz73fxULwpa+4=);strokeColor=#ffffff;spacingTop=-3;spacingBottom=-3;spacingLeft=-3;spacingRight=-3;points=[[0.5,0.54,0]];labelBackgroundColor=none;rounded=0;html=1;whiteSpace=wrap;" vertex="1" parent="_ri6LobGK2kgGPJhY-P0-545">
          <mxGeometry width="72" height="39" as="geometry" />
        </mxCell>
        <mxCell id="_ri6LobGK2kgGPJhY-P0-548" style="vsdxID=1124;fillColor=#ffffff;gradientColor=#c9ba96;shape=stencil(rVJBEoMgDHwNRxkEHfFs7T+YisqUihNptb8vFDtVO3rqLcnuJiwJYsXQil4iSgYL5ipHVdkWsROiVHWtBGVdhFiJWFEbkA2Ye1eFvBee6aObefgOU9DFhHgNJc85zzFP35VzoAu4OBQ+9CzBMQ8KmCUpxykLpZm1bjlnUyQmNURgrLDKdCtMC2hk5EZFtRbNChpGKftFOV4+TqtO7o3lMc6SIycEp1snGWZ05eTne8h/3ZB9N3mO8+R4Ny747rVWWoezWOLbO3ClcEOsfAE=);strokeColor=#ffffff;spacingTop=-3;spacingBottom=-3;spacingLeft=-3;spacingRight=-3;points=[[0.5,0.54,0]];labelBackgroundColor=none;rounded=0;html=1;whiteSpace=wrap;" vertex="1" parent="_ri6LobGK2kgGPJhY-P0-545">
          <mxGeometry y="24" width="27" height="75" as="geometry" />
        </mxCell>
        <mxCell id="_ri6LobGK2kgGPJhY-P0-549" style="vsdxID=1125;fillColor=#ffffff;gradientColor=#b6a06d;shape=stencil(UzV2Ls5ILEhVNTIoLinKz04tz0wpyVA1dlE1MsrMy0gtyiwBslSNXVWNndPyi1LTi/JL81Ig/IJEkEoQKze/DGRCBUSfAUiHkUElhGdkoWdqBhZxgyjOyczDqdjQwAC3UpgkTLG5oZ65EfHK8ZhMwMVABsKvaZk5OZCgQpZHDxugECRcjV0B);strokeColor=#ffffff;spacingTop=-3;spacingBottom=-3;spacingLeft=-3;spacingRight=-3;points=[[0.5,0.54,0]];labelBackgroundColor=none;rounded=0;html=1;whiteSpace=wrap;" vertex="1" parent="_ri6LobGK2kgGPJhY-P0-545">
          <mxGeometry x="27" y="14" width="44" height="85" as="geometry" />
        </mxCell>
        <mxCell id="_ri6LobGK2kgGPJhY-P0-550" value="&lt;div style=&quot;font-size: 1px&quot;&gt;&lt;/div&gt;" style="verticalAlign=middle;align=center;vsdxID=1126;fillColor=#000000;gradientColor=none;shape=stencil(jZLdEoIgEIWfhksZBPzp2uw9mERlMnFWSnv7MHQSraa73bPfgV0WxLK+Fp1ElPQG9EUOqjA1YkdEqWprCcrYCLEcsazUICvQt7ZweScmcoqu+j6dMDpfSMjkoeQx5xyn7KWcHN6odoXHIY64ZyDfYf9kynHIf8CYUI9P4w0v4GyrsHRiG3U8zAbOcJQ4aWZYgg+JP94y7hiIUfUBaCOM0q3XcCOgkoG9LigbUXmlfpCy28kfB9q+bBLhNP4f3y3CBu8luv2va9uFW8l9FpY/AQ==);strokeColor=#000000;spacingTop=-3;spacingBottom=-3;spacingLeft=-3;spacingRight=-3;points=[[0.5,0.54,0]];labelBackgroundColor=none;rounded=0;html=1;whiteSpace=wrap;" vertex="1" parent="_ri6LobGK2kgGPJhY-P0-545">
          <mxGeometry width="72" height="100" as="geometry" />
        </mxCell>
        <mxCell id="_ri6LobGK2kgGPJhY-P0-551" style="vsdxID=1127;rotation=340;fillColor=#FFFFFF;gradientColor=#339966;shape=stencil(vVHLDsIgEPwajiQI6RfU+h8bu22JCGRB2/69kG1iazx58DazM/vIjjBtmiCi0CplCjecbZ8nYc5Ca+snJJsLEqYTph0C4Ujh4XvmEaqzont41gkL96naodXKrGF6YSfQtUi0OXXDVlqPfJNP6usotUhYbJIUMmQb/GGrAxpRljVycDBuc1hKM2LclX8/7H9nFfB+82Cd45T2+mcspcSRmu4F);strokeColor=#000000;points=[[0.5,0.54,0]];labelBackgroundColor=none;rounded=0;html=1;whiteSpace=wrap;" vertex="1" parent="_ri6LobGK2kgGPJhY-P0-545">
          <mxGeometry x="10" y="61" width="4" height="5" as="geometry" />
        </mxCell>
        <mxCell id="_ri6LobGK2kgGPJhY-P0-552" style="vsdxID=1128;fillColor=#FFFFFF;gradientColor=#e7e4cd;gradientDirection=north;shape=stencil(xZLdDoIwDIWfZpcsowMc1wrvseiARWWkzL+3d6So+BO8Mt61PafdvuQwuewb3RkGovfotuZkN75hcsUAbNsYtD5UTBZMLiuHpkZ3aDfUd3pwDtXeHYcLZ9oTwwaIy7QryahxHRQcjaByLhS58XKbKZ7kNBttsXi+mGY8htER6bPtI3Ree+ta0pXkaUb6TmNtovBqVO10/fS9/mRM9zYuvwNBzPNkHip+Z0phlmmhuMj+x5RIrtQXJvgAlcxC3ftfIYXiEULK71R7DWwYUdhlcQU=);strokeColor=#000000;strokeWidth=2;points=[[0.5,0.54,0]];labelBackgroundColor=none;rounded=0;html=1;whiteSpace=wrap;" vertex="1" parent="_ri6LobGK2kgGPJhY-P0-545">
          <mxGeometry x="4" y="74" width="18" height="16" as="geometry" />
        </mxCell>
        <mxCell id="_ri6LobGK2kgGPJhY-P0-553" style="vsdxID=1129;fillColor=none;gradientColor=none;strokeColor=none;points=[[0.5,0.54,0]];labelBackgroundColor=none;rounded=0;html=1;whiteSpace=wrap;" vertex="1" parent="_ri6LobGK2kgGPJhY-P0-545">
          <mxGeometry x="3" y="35" width="19" height="21" as="geometry" />
        </mxCell>
        <mxCell id="_ri6LobGK2kgGPJhY-P0-554" style="vsdxID=1130;fillColor=#000000;gradientColor=none;shape=stencil(vZPdcoMgEIWfhkt3gEXQ6zR5D6ZBZWLFQfLTty8W+kPatDdt7tZzzsLHjktwswx6NoTTJXh3MGe7DwPBB8K5nQbjbYgVwS3BTee86b07Tvv0Pes1uVZP7rSecEl9CMjWJk6fk8AECHxVdimv/WN0fc5zFFAnn/rcgi0H0SYtx1oJvCnPpTQnKn2xS+Vd0MG6KbnZG7XvTRVvrLpR94W1nI2Zv8jfMgpQsiRU0Kpf+Jr4bnEvwngdsKshNgwUFpA1MFXOEFD+KSK7jYhAm5Iw4siCjwLlBV8Nqr7XCOX7tN74GANeAv7wc/8LYSw+9qyz45jW9LN/vZdRSjuN2xc=);strokeColor=#000000;points=[[0.5,0.54,0]];labelBackgroundColor=none;rounded=0;html=1;whiteSpace=wrap;" vertex="1" parent="_ri6LobGK2kgGPJhY-P0-553">
          <mxGeometry width="19" height="11" as="geometry" />
        </mxCell>
        <mxCell id="_ri6LobGK2kgGPJhY-P0-555" style="vsdxID=1131;fillColor=#FFFFFF;gradientColor=#e7e4cd;shape=stencil(pVFLDoIwED1NlzTTlmBZ+7lHIwUakZKhCt7e4mAUxZW7mffpvOYxte1r01kmoQ/oT3ZwRaiZ2jEpXVtbdCFOTO2Z2pYebYX+0ha0d2ZSTtPZX6cXRvIJgMkj4UZ7rjmIB3IgucFjZPEpl4JrRQ6cLUJonueEzTLJ083iWQkc9CxJzOj6BH0wwfmWeJ1zugqNwcom8WpSNqYido7YD9Z2X/BqTg1cZMuYWcqFXKT8/ff1kPBfwji8Wihd01CJ7/xnaxGixtX+Dg==);strokeColor=#FFFFFF;strokeWidth=0;points=[[0.5,0.54,0]];labelBackgroundColor=none;rounded=0;html=1;whiteSpace=wrap;" vertex="1" parent="_ri6LobGK2kgGPJhY-P0-553">
          <mxGeometry x="5" y="5" width="5" height="3" as="geometry" />
        </mxCell>
        <mxCell id="_ri6LobGK2kgGPJhY-P0-556" style="vsdxID=1132;fillColor=#000000;gradientColor=#e7e4cd;fillOpacity=40;shape=stencil(rVJLEoIwDD1Nl3RK4lBc+7lHRwt0rJQJVfD2lqkfQHTlLp/3krwkDDdtpRrNQLSe3El35ugrhlsGYOpKk/HBYrhjuCkc6ZLcpT5Gv1EDcrDO7jpU6CNPDAwQt7G3j0Br6q9ARC5xDFZ0CFl6gEGmHFaRQU8KZDyPoQcqFdOiL79PVG/ahJxX3rh6MoBVVOoktEsKq8pJqu20bj7Ci2rmrbOMg/yhJxcc1jM9KLmc6Fna5b+0pOPhgvG+Z2Gsje8wzs/vH0Lxd3B3Bw==);strokeColor=none;strokeWidth=0;points=[[0.5,0.54,0]];labelBackgroundColor=none;rounded=0;html=1;whiteSpace=wrap;" vertex="1" parent="_ri6LobGK2kgGPJhY-P0-553">
          <mxGeometry y="6" width="18" height="14" as="geometry" />
        </mxCell>
        <mxCell id="_ri6LobGK2kgGPJhY-P0-557" style="vsdxID=1133;fillColor=#000000;gradientColor=none;shape=stencil(rVLLEoIwDPyaHun0gRbOiP/R0QIdK2XSqvj3Fouj1UEv3pLNbpKdBPHKdXJQiBHnwR7URe99h/gGMab7ToH2IUK8RrxqLKgW7Knfx3yQE3OKjvY8dRijjkwKRq4xoxSz8o5sI1nCLlRhJrN8hVciKmCW8HKNSRGxmUbJW9dHPmZy1C4D66XXtk82MBJalYV5WWNkm5TcRanhA543NLpXy6OLAgv6xZCgOOepoZwLLMrEUNrzv2bospkftwnB86qNNiY+xWv9/QsCFD+I1zc=);strokeColor=none;points=[[0.5,0.54,0]];labelBackgroundColor=none;rounded=0;html=1;whiteSpace=wrap;" vertex="1" parent="_ri6LobGK2kgGPJhY-P0-553">
          <mxGeometry y="7" width="18" height="10" as="geometry" />
        </mxCell>
        <mxCell id="_ri6LobGK2kgGPJhY-P0-558" style="vsdxID=1134;fillColor=none;gradientColor=none;fillOpacity=40;shape=stencil(dVDRDoIwDPyaPY6M1ojviP+xyBiLuJFuCv69W4YKGt/uendtcwxr38tRMRA+kLuoybShZ3hkAMb2ikyIiGHDsO4cKU3uZtvMR5mcCV3dPW2Yc06kBIjHmp2ycTD2rxGxqHBtlnSOKi1mqMoCdjlBrwjsi0MeLa5SbJe++czlbDwnF2Qwzm4eGCRpxeM53g1SbyQ/KTX+jJcHI/h0kOtba999xVHuGpsn);strokeColor=#FFFFFF;points=[[0.5,0.54,0]];labelBackgroundColor=none;rounded=0;html=1;whiteSpace=wrap;" vertex="1" parent="_ri6LobGK2kgGPJhY-P0-553">
          <mxGeometry y="6" width="18" height="14" as="geometry" />
        </mxCell>
        <mxCell id="_ri6LobGK2kgGPJhY-P0-559" style="vsdxID=1135;fillColor=#000000;gradientColor=#e7e4cd;fillOpacity=40;shape=stencil(fVDLDsIgEPwajjR0N2n1XPU/iKUtsUKzoK1/L4QawYO3mZ0HZBh2bpKLYiCcJ3tTq+79xPDEALSZFGkfEMMzw26wpEayD9MnvsjojOhun7FhS7laiJgB8Sr5JZlnbf6Ym6aCNrdLugaVdjscRAXHlKA9gthWKfIpLSt3tnG5acfJeum1NYU2SxoVD0/xYZZjIblVqSU71/nnAviukAbMtd/Fwimtjec3);strokeColor=#000000;points=[[0.5,0.54,0]];labelBackgroundColor=none;rounded=0;html=1;whiteSpace=wrap;" vertex="1" parent="_ri6LobGK2kgGPJhY-P0-553">
          <mxGeometry y="6" width="18" height="14" as="geometry" />
        </mxCell>
        <mxCell id="_ri6LobGK2kgGPJhY-P0-561" value="" style="outlineConnect=0;dashed=0;verticalLabelPosition=bottom;verticalAlign=top;align=center;html=1;shape=mxgraph.aws3.queue;fillColor=#D9A741;gradientColor=none;" vertex="1" parent="1">
          <mxGeometry x="1410" y="302" width="73.5" height="48" as="geometry" />
        </mxCell>
        <mxCell id="_ri6LobGK2kgGPJhY-P0-566" value="" style="endArrow=classic;html=1;rounded=0;exitX=0.995;exitY=0.553;exitDx=0;exitDy=0;exitPerimeter=0;entryX=-0.051;entryY=0.755;entryDx=0;entryDy=0;entryPerimeter=0;" edge="1" parent="1" source="_ri6LobGK2kgGPJhY-P0-504" target="_ri6LobGK2kgGPJhY-P0-480">
          <mxGeometry width="50" height="50" relative="1" as="geometry">
            <mxPoint x="1640" y="490" as="sourcePoint" />
            <mxPoint x="1690" y="440" as="targetPoint" />
          </mxGeometry>
        </mxCell>
        <mxCell id="_ri6LobGK2kgGPJhY-P0-567" value="" style="endArrow=classic;html=1;rounded=0;exitX=1.051;exitY=0.473;exitDx=0;exitDy=0;exitPerimeter=0;entryX=-0.06;entryY=1;entryDx=0;entryDy=0;entryPerimeter=0;" edge="1" parent="1" source="_ri6LobGK2kgGPJhY-P0-504" target="358">
          <mxGeometry width="50" height="50" relative="1" as="geometry">
            <mxPoint x="1620" y="330" as="sourcePoint" />
            <mxPoint x="1670" y="280" as="targetPoint" />
          </mxGeometry>
        </mxCell>
        <mxCell id="_ri6LobGK2kgGPJhY-P0-568" value="" style="endArrow=classic;html=1;rounded=0;exitX=1.042;exitY=0.68;exitDx=0;exitDy=0;exitPerimeter=0;" edge="1" parent="1" source="193" target="_ri6LobGK2kgGPJhY-P0-561">
          <mxGeometry width="50" height="50" relative="1" as="geometry">
            <mxPoint x="1620" y="330" as="sourcePoint" />
            <mxPoint x="1670" y="280" as="targetPoint" />
          </mxGeometry>
        </mxCell>
        <mxCell id="_ri6LobGK2kgGPJhY-P0-569" value="" style="endArrow=classic;html=1;rounded=0;exitX=1;exitY=0;exitDx=0;exitDy=0;exitPerimeter=0;entryX=-0.051;entryY=0.947;entryDx=0;entryDy=0;entryPerimeter=0;" edge="1" parent="1" source="_ri6LobGK2kgGPJhY-P0-561" target="_ri6LobGK2kgGPJhY-P0-545">
          <mxGeometry width="50" height="50" relative="1" as="geometry">
            <mxPoint x="1620" y="330" as="sourcePoint" />
            <mxPoint x="1670" y="280" as="targetPoint" />
          </mxGeometry>
        </mxCell>
        <mxCell id="_ri6LobGK2kgGPJhY-P0-570" value="" style="endArrow=classic;html=1;rounded=0;entryX=-0.056;entryY=0.5;entryDx=0;entryDy=0;entryPerimeter=0;" edge="1" parent="1" source="_ri6LobGK2kgGPJhY-P0-550" target="363">
          <mxGeometry width="50" height="50" relative="1" as="geometry">
            <mxPoint x="1620" y="330" as="sourcePoint" />
            <mxPoint x="1670" y="280" as="targetPoint" />
          </mxGeometry>
        </mxCell>
        <mxCell id="2" value="Web Site Map Shapes" parent="0" />
        <mxCell id="9" value="Flowchart" parent="0" />
        <mxCell id="3" value="Movable Furnishings" parent="0" />
        <mxCell id="4" value="Furniture" parent="0" />
        <mxCell id="5" value="Fixtures" parent="0" />
        <mxCell id="6" value="Counter Or Shelf" parent="0" />
        <mxCell id="7" value="Machines" parent="0" />
        <mxCell id="8" value="Equipment" parent="0" />
      </root>
    </mxGraphModel>
  </diagram>
</mxfile>
